<svg xmlns="http://www.w3.org/2000/svg" viewBox="0 0 92.5 105" x="0px" y="0px"><defs><style>.cls-1{fill:none;stroke:#000;stroke-miterlimit:10;stroke-width:3px;}</style></defs><title>Asset 235</title><g data-name="Layer 2"><g><polyline class="cls-1" points="82.76 58.57 82.76 31.42 53.45 1.5 9.74 1.5 9.74 58.57"/><polyline class="cls-1" points="9.74 90.48 9.74 101.5 82.76 101.5 82.76 90.48"/><polyline class="cls-1" points="53.45 1.5 53.45 30.81 82.76 30.81"/><rect class="cls-1" x="1.5" y="58.57" width="89.5" height="31.91"/><path d="M27.3,82.46V68.27h6.64a4.58,4.58,0,1,1,0,9.15H30.32v5Zm8.32-9.61a1.9,1.9,0,0,0-2.09-1.92H30.32v3.83h3.21A1.91,1.91,0,0,0,35.62,72.85Z"/><path d="M40.58,82.46V68.27h5.59c4.45,0,7.53,2.83,7.53,7.11s-3.08,7.08-7.53,7.08Zm10-7.08a4.16,4.16,0,0,0-4.45-4.45H43.6V79.8h2.57A4.25,4.25,0,0,0,50.62,75.38Z"/><path d="M55.85,82.46V68.27H65.9v2.66h-7v3h6.87v2.66H58.88v5.87Z"/></g></g></svg>