<svg xmlns="http://www.w3.org/2000/svg" xmlns:xlink="http://www.w3.org/1999/xlink" version="1.1" viewBox="-5 0 220 250" overflow="visible" enable-background="new -24 -4 260 260" xml:space="preserve" x="0px" y="0px"><g><path d="M33.373,131.947h20.984c4.137,0,7.478,0.703,10.024,2.109c2.546,1.405,4.651,3.424,6.314,6.053   c1.662,2.629,2.868,5.688,3.616,9.178c0.748,3.488,1.123,7.186,1.123,11.09c0,6.118-0.557,10.863-1.668,14.234   c-1.112,3.371-2.656,6.197-4.631,8.475c-1.975,2.277-4.095,3.795-6.36,4.549c-3.098,1.043-5.904,1.563-8.419,1.563H33.373V131.947z    M47.498,144.947v31.25h3.461c2.951,0,5.051-0.409,6.298-1.229c1.247-0.82,2.224-2.25,2.931-4.293   c0.707-2.041,1.061-5.351,1.061-9.929c0-6.062-0.79-10.209-2.37-12.444c-1.58-2.236-4.198-3.355-7.856-3.355H47.498z"/><path d="M81.037,160.611c0-9.354,2.079-16.637,6.237-21.848c4.158-5.211,9.949-7.816,17.373-7.816   c7.609,0,13.473,2.561,17.589,7.68c4.117,5.12,6.177,12.292,6.177,21.516c0,6.696-0.899,12.188-2.699,16.475   c-1.799,4.285-4.396,7.621-7.797,10.005c-3.397,2.385-7.635,3.575-12.709,3.575c-5.156,0-9.423-1.027-12.802-3.086   c-3.379-2.059-6.119-5.315-8.219-9.771C82.086,172.885,81.037,167.309,81.037,160.611z M95.162,160.674   c0,5.79,0.857,9.95,2.573,12.479c1.716,2.529,4.051,3.795,7.005,3.795c3.035,0,5.387-1.238,7.051-3.717   c1.664-2.478,2.496-6.924,2.496-13.34c0-5.397-0.869-9.343-2.605-11.832c-1.736-2.49-4.092-3.736-7.065-3.736   c-2.85,0-5.138,1.266-6.865,3.795S95.162,154.832,95.162,160.674z"/><path d="M166.475,165.76l12.375,4.686c-0.832,4.354-2.144,7.992-3.933,10.912c-1.789,2.922-4.011,5.125-6.663,6.611   c-2.652,1.485-6.027,2.229-10.126,2.229c-4.974,0-9.034-0.905-12.187-2.715s-5.873-4.992-8.16-9.549   c-2.289-4.558-3.434-10.39-3.434-17.498c0-9.479,2.014-16.763,6.038-21.854c4.025-5.09,9.72-7.637,17.085-7.637   c5.764,0,10.293,1.461,13.59,4.379c3.297,2.921,5.748,7.404,7.351,13.451l-12.5,3.482c-0.437-1.748-0.894-3.025-1.37-3.836   c-0.789-1.355-1.755-2.4-2.896-3.131c-1.141-0.73-2.418-1.096-3.828-1.096c-3.197,0-5.647,1.611-7.35,4.836   c-1.287,2.394-1.931,6.15-1.931,11.273c0,6.346,0.771,10.693,2.31,13.047c1.538,2.354,3.7,3.53,6.487,3.53   c2.703,0,4.747-0.948,6.13-2.851C164.846,172.137,165.85,169.377,166.475,165.76z"/></g><path d="M192.509,67.108l-50.922-49.527C134.333,10.526,120.725,5,110.605,5H27.5C15.093,5,5,15.093,5,27.5v197.203  c0,12.406,10.093,22.5,22.5,22.5h155.533c12.406,0,22.5-10.094,22.5-22.5V97.943C205.533,87.586,199.934,74.33,192.509,67.108z   M182.05,77.861c1.803,1.753,3.534,4.377,4.963,7.285h-56.329c-4.136,0-7.5-3.364-7.5-7.5V23.249  c3.154,1.44,6.032,3.226,7.944,5.086L182.05,77.861z M183.033,232.203H27.5c-4.136,0-7.5-3.364-7.5-7.5V27.5  c0-4.136,3.364-7.5,7.5-7.5h80.684v57.646c0,12.407,10.094,22.5,22.5,22.5h59.85v124.557  C190.533,228.839,187.169,232.203,183.033,232.203z"/></svg>