<svg
  xmlns="http://www.w3.org/2000/svg"
  xmlns:xlink="http://www.w3.org/1999/xlink"
  version="1.1"
  x="0px"
  y="0px"
  viewBox="0 0 90 90"
  style="enable-background:new 0 0 100 100;"
  xml:space="preserve"
>
  <path
    d="M89,88h-3.5703125V27.1132812c0-0.5527344-0.4477539-1-1-1H66.6650391v-7.7314453  c0-0.3154297-0.1489258-0.6123047-0.4018555-0.8017578l-9.8891602-7.3818359c-0.3544922-0.2636719-0.8417969-0.2636719-1.1962891,0  l-9.8896484,7.3818359c-0.2529297,0.1894531-0.4018555,0.4863281-0.4018555,0.8017578v8.0898438l-8.0107422,7.7412109  c-0.1948242,0.1884766-0.3051758,0.4472656-0.3051758,0.71875V88H17.8642578v-5.5028687  c2.7582397-0.4767456,4.8647461-2.8806152,4.8647461-5.772522v-4.9921875c0-3.2333984-2.6308594-5.8642578-5.8647461-5.8642578  C13.6308594,65.8681641,11,68.4990234,11,71.7324219v4.9921875c0,2.8918457,2.1064453,5.2956543,4.8642578,5.7724609V88H11  c-0.5522461,0-1,0.4472656-1,1s0.4477539,1,1,1h78c0.5522461,0,1-0.4472656,1-1S89.5522461,88,89,88z M13,76.7246094v-4.9921875  c0-2.1308594,1.7333984-3.8642578,3.8642578-3.8642578s3.8647461,1.7333984,3.8647461,3.8642578v4.9921875  c0,2.1308594-1.7338867,3.8642578-3.8647461,3.8642578S13,78.8554688,13,76.7246094z M83.4296875,88H62.4072266V28.1132812  h21.0224609V88z M38.5703125,35.3554688l8.0107422-7.7412109c0.1953125-0.1884766,0.3051758-0.4472656,0.3051758-0.71875v-8.0126953  l8.8896484-6.6347656l8.8891602,6.6347656v7.2304688h-3.2578125c-0.5522461,0-1,0.4472656-1,1V88H38.5703125V35.3554688z"
  />
  <path
    d="M55.5429688,77.7021484c-0.5522461,0-1,0.4472656-1,1v4.34375c0,0.5527344,0.4477539,1,1,1s1-0.4472656,1-1v-4.34375  C56.5429688,78.1494141,56.0952148,77.7021484,55.5429688,77.7021484z"
  />
  <path
    d="M55.5429688,67.4140625c-0.5522461,0-1,0.4472656-1,1v4.34375c0,0.5527344,0.4477539,1,1,1s1-0.4472656,1-1v-4.34375  C56.5429688,67.8613281,56.0952148,67.4140625,55.5429688,67.4140625z"
  />
  <path
    d="M55.5429688,57.1259766c-0.5522461,0-1,0.4472656-1,1v4.34375c0,0.5527344,0.4477539,1,1,1s1-0.4472656,1-1v-4.34375  C56.5429688,57.5732422,56.0952148,57.1259766,55.5429688,57.1259766z"
  />
  <path
    d="M55.5429688,46.8378906c-0.5522461,0-1,0.4472656-1,1v4.34375c0,0.5527344,0.4477539,1,1,1s1-0.4472656,1-1v-4.34375  C56.5429688,47.2851562,56.0952148,46.8378906,55.5429688,46.8378906z"
  />
  <path
    d="M55.5429688,36.5488281c-0.5522461,0-1,0.4472656-1,1v4.3447266c0,0.5527344,0.4477539,1,1,1s1-0.4472656,1-1v-4.3447266  C56.5429688,36.9960938,56.0952148,36.5488281,55.5429688,36.5488281z"
  />
  <path
    d="M55.5429688,26.2607422c-0.5522461,0-1,0.4472656-1,1v4.34375c0,0.5527344,0.4477539,1,1,1s1-0.4472656,1-1v-4.34375  C56.5429688,26.7080078,56.0952148,26.2607422,55.5429688,26.2607422z"
  />
  <path
    d="M46.0405273,77.7021484c-0.5522461,0-1,0.4472656-1,1v4.34375c0,0.5527344,0.4477539,1,1,1s1-0.4472656,1-1v-4.34375  C47.0405273,78.1494141,46.5927734,77.7021484,46.0405273,77.7021484z"
  />
  <path
    d="M46.0405273,67.4140625c-0.5522461,0-1,0.4472656-1,1v4.34375c0,0.5527344,0.4477539,1,1,1s1-0.4472656,1-1v-4.34375  C47.0405273,67.8613281,46.5927734,67.4140625,46.0405273,67.4140625z"
  />
  <path
    d="M46.0405273,57.1259766c-0.5522461,0-1,0.4472656-1,1v4.34375c0,0.5527344,0.4477539,1,1,1s1-0.4472656,1-1v-4.34375  C47.0405273,57.5732422,46.5927734,57.1259766,46.0405273,57.1259766z"
  />
  <path
    d="M46.0405273,46.8378906c-0.5522461,0-1,0.4472656-1,1v4.34375c0,0.5527344,0.4477539,1,1,1s1-0.4472656,1-1v-4.34375  C47.0405273,47.2851562,46.5927734,46.8378906,46.0405273,46.8378906z"
  />
  <path
    d="M46.0405273,36.5488281c-0.5522461,0-1,0.4472656-1,1v4.3447266c0,0.5527344,0.4477539,1,1,1s1-0.4472656,1-1v-4.3447266  C47.0405273,36.9960938,46.5927734,36.5488281,46.0405273,36.5488281z"
  />
  <path
    d="M69.0629883,42.6269531c0.5522461,0,1-0.4472656,1-1v-4.34375c0-0.5527344-0.4477539-1-1-1s-1,0.4472656-1,1v4.34375  C68.0629883,42.1796875,68.5107422,42.6269531,69.0629883,42.6269531z"
  />
  <path
    d="M76.7734375,42.6269531c0.5522461,0,1-0.4472656,1-1v-4.34375c0-0.5527344-0.4477539-1-1-1s-1,0.4472656-1,1v4.34375  C75.7734375,42.1796875,76.2211914,42.6269531,76.7734375,42.6269531z"
  />
  <path
    d="M69.0629883,53.171875c0.5522461,0,1-0.4472656,1-1v-4.34375c0-0.5527344-0.4477539-1-1-1s-1,0.4472656-1,1v4.34375  C68.0629883,52.7246094,68.5107422,53.171875,69.0629883,53.171875z"
  />
  <path
    d="M76.7734375,53.171875c0.5522461,0,1-0.4472656,1-1v-4.34375c0-0.5527344-0.4477539-1-1-1s-1,0.4472656-1,1v4.34375  C75.7734375,52.7246094,76.2211914,53.171875,76.7734375,53.171875z"
  />
  <path
    d="M69.0629883,63.7167969c0.5522461,0,1-0.4472656,1-1v-4.34375c0-0.5527344-0.4477539-1-1-1s-1,0.4472656-1,1v4.34375  C68.0629883,63.2695312,68.5107422,63.7167969,69.0629883,63.7167969z"
  />
  <path
    d="M76.7734375,63.7167969c0.5522461,0,1-0.4472656,1-1v-4.34375c0-0.5527344-0.4477539-1-1-1s-1,0.4472656-1,1v4.34375  C75.7734375,63.2695312,76.2211914,63.7167969,76.7734375,63.7167969z"
  />
  <path
    d="M69.0629883,73.7578125c0.5522461,0,1-0.4472656,1-1v-4.34375c0-0.5527344-0.4477539-1-1-1s-1,0.4472656-1,1v4.34375  C68.0629883,73.3105469,68.5107422,73.7578125,69.0629883,73.7578125z"
  />
  <path
    d="M76.7734375,73.7578125c0.5522461,0,1-0.4472656,1-1v-4.34375c0-0.5527344-0.4477539-1-1-1s-1,0.4472656-1,1v4.34375  C75.7734375,73.3105469,76.2211914,73.7578125,76.7734375,73.7578125z"
  />
  <path
    d="M69.0629883,83.7988281c0.5522461,0,1-0.4472656,1-1v-4.34375c0-0.5527344-0.4477539-1-1-1s-1,0.4472656-1,1v4.34375  C68.0629883,83.3515625,68.5107422,83.7988281,69.0629883,83.7988281z"
  />
  <path
    d="M76.7734375,83.7988281c0.5522461,0,1-0.4472656,1-1v-4.34375c0-0.5527344-0.4477539-1-1-1s-1,0.4472656-1,1v4.34375  C75.7734375,83.3515625,76.2211914,83.7988281,76.7734375,83.7988281z"
  />
</svg>
