<svg xmlns="http://www.w3.org/2000/svg" xmlns:xlink="http://www.w3.org/1999/xlink" version="1.1" x="0px" y="0px" viewBox="0 0 100 125" style="enable-background:new 0 0 100 100;" xml:space="preserve"><path d="M11,90h78c0.5522461,0,1-0.4477539,1-1s-0.4477539-1-1-1h-2.0317383V51.7363281c0-0.5522461-0.4477539-1-1-1h-30.9375  c-0.5522461,0-1,0.4477539-1,1V88h-6.0268555V11c0-0.5522461-0.4477539-1-1-1H14.03125c-0.5522461,0-1,0.4477539-1,1v77H11  c-0.5522461,0-1,0.4477539-1,1S10.4477539,90,11,90z M56.0307617,52.7363281h28.9375V88h-28.9375V52.7363281z M15.03125,12  h30.9726562v76H15.03125V12z"/><path d="M22.2172852,18.5507812c-0.5522461,0-1,0.4477539-1,1v6.0258789c0,0.5522461,0.4477539,1,1,1s1-0.4477539,1-1v-6.0258789  C23.2172852,18.9985352,22.7695312,18.5507812,22.2172852,18.5507812z"/><path d="M22.2172852,32.4111328c-0.5522461,0-1,0.4477539-1,1v6.0258789c0,0.5522461,0.4477539,1,1,1s1-0.4477539,1-1v-6.0258789  C23.2172852,32.8588867,22.7695312,32.4111328,22.2172852,32.4111328z"/><path d="M22.2172852,46.2709961c-0.5522461,0-1,0.4477539-1,1v6.0263672c0,0.5522461,0.4477539,1,1,1s1-0.4477539,1-1v-6.0263672  C23.2172852,46.71875,22.7695312,46.2709961,22.2172852,46.2709961z"/><path d="M22.2172852,60.1318359c-0.5522461,0-1,0.4477539-1,1v6.0258789c0,0.5522461,0.4477539,1,1,1s1-0.4477539,1-1v-6.0258789  C23.2172852,60.5795898,22.7695312,60.1318359,22.2172852,60.1318359z"/><path d="M22.2172852,73.9916992c-0.5522461,0-1,0.4477539-1,1v6.0263672c0,0.5522461,0.4477539,1,1,1s1-0.4477539,1-1v-6.0263672  C23.2172852,74.4394531,22.7695312,73.9916992,22.2172852,73.9916992z"/><path d="M30.3237305,18.5507812c-0.5522461,0-1,0.4477539-1,1v6.0258789c0,0.5522461,0.4477539,1,1,1s1-0.4477539,1-1v-6.0258789  C31.3237305,18.9985352,30.8759766,18.5507812,30.3237305,18.5507812z"/><path d="M30.3237305,32.4111328c-0.5522461,0-1,0.4477539-1,1v6.0258789c0,0.5522461,0.4477539,1,1,1s1-0.4477539,1-1v-6.0258789  C31.3237305,32.8588867,30.8759766,32.4111328,30.3237305,32.4111328z"/><path d="M30.3237305,46.2709961c-0.5522461,0-1,0.4477539-1,1v6.0263672c0,0.5522461,0.4477539,1,1,1s1-0.4477539,1-1v-6.0263672  C31.3237305,46.71875,30.8759766,46.2709961,30.3237305,46.2709961z"/><path d="M30.3237305,60.1318359c-0.5522461,0-1,0.4477539-1,1v6.0258789c0,0.5522461,0.4477539,1,1,1s1-0.4477539,1-1v-6.0258789  C31.3237305,60.5795898,30.8759766,60.1318359,30.3237305,60.1318359z"/><path d="M30.3237305,73.9916992c-0.5522461,0-1,0.4477539-1,1v6.0263672c0,0.5522461,0.4477539,1,1,1s1-0.4477539,1-1v-6.0263672  C31.3237305,74.4394531,30.8759766,73.9916992,30.3237305,73.9916992z"/><path d="M38.4296875,18.5507812c-0.5522461,0-1,0.4477539-1,1v6.0258789c0,0.5522461,0.4477539,1,1,1s1-0.4477539,1-1v-6.0258789  C39.4296875,18.9985352,38.9819336,18.5507812,38.4296875,18.5507812z"/><path d="M38.4296875,32.4111328c-0.5522461,0-1,0.4477539-1,1v6.0258789c0,0.5522461,0.4477539,1,1,1s1-0.4477539,1-1v-6.0258789  C39.4296875,32.8588867,38.9819336,32.4111328,38.4296875,32.4111328z"/><path d="M63.1557617,60.1318359c-0.5522461,0-1,0.4477539-1,1v6.0258789c0,0.5522461,0.4477539,1,1,1s1-0.4477539,1-1v-6.0258789  C64.1557617,60.5795898,63.7080078,60.1318359,63.1557617,60.1318359z"/><path d="M63.1557617,73.9916992c-0.5522461,0-1,0.4477539-1,1v6.0263672c0,0.5522461,0.4477539,1,1,1s1-0.4477539,1-1v-6.0263672  C64.1557617,74.4394531,63.7080078,73.9916992,63.1557617,73.9916992z"/><path d="M70.4995117,60.1318359c-0.5522461,0-1,0.4477539-1,1v6.0258789c0,0.5522461,0.4477539,1,1,1s1-0.4477539,1-1v-6.0258789  C71.4995117,60.5795898,71.0517578,60.1318359,70.4995117,60.1318359z"/><path d="M70.4995117,73.9916992c-0.5522461,0-1,0.4477539-1,1v6.0263672c0,0.5522461,0.4477539,1,1,1s1-0.4477539,1-1v-6.0263672  C71.4995117,74.4394531,71.0517578,73.9916992,70.4995117,73.9916992z"/><path d="M77.8432617,60.1318359c-0.5522461,0-1,0.4477539-1,1v6.0258789c0,0.5522461,0.4477539,1,1,1s1-0.4477539,1-1v-6.0258789  C78.8432617,60.5795898,78.3955078,60.1318359,77.8432617,60.1318359z"/><path d="M77.8432617,73.9916992c-0.5522461,0-1,0.4477539-1,1v6.0263672c0,0.5522461,0.4477539,1,1,1s1-0.4477539,1-1v-6.0263672  C78.8432617,74.4394531,78.3955078,73.9916992,77.8432617,73.9916992z"/><path d="M38.4296875,46.2709961c-0.5522461,0-1,0.4477539-1,1v6.0263672c0,0.5522461,0.4477539,1,1,1s1-0.4477539,1-1v-6.0263672  C39.4296875,46.71875,38.9819336,46.2709961,38.4296875,46.2709961z"/><path d="M38.4296875,60.1318359c-0.5522461,0-1,0.4477539-1,1v6.0258789c0,0.5522461,0.4477539,1,1,1s1-0.4477539,1-1v-6.0258789  C39.4296875,60.5795898,38.9819336,60.1318359,38.4296875,60.1318359z"/><path d="M38.4296875,73.9916992c-0.5522461,0-1,0.4477539-1,1v6.0263672c0,0.5522461,0.4477539,1,1,1s1-0.4477539,1-1v-6.0263672  C39.4296875,74.4394531,38.9819336,73.9916992,38.4296875,73.9916992z"/><text x="0" y="115" fill="#000000" font-size="5px" font-weight="bold" font-family="'Helvetica Neue', Helvetica, Arial-Unicode, Arial, Sans-serif">Created by Made x Made</text><text x="0" y="120" fill="#000000" font-size="5px" font-weight="bold" font-family="'Helvetica Neue', Helvetica, Arial-Unicode, Arial, Sans-serif">from the Noun Project</text></svg>