<svg xmlns="http://www.w3.org/2000/svg" xmlns:xlink="http://www.w3.org/1999/xlink" version="1.1" x="0px" y="0px" viewBox="0 0 100 125" style="enable-background:new 0 0 100 100;" xml:space="preserve"><path d="M89,88h-1.6367188V11c0-0.5522461-0.4472656-1-1-1H60.1728516c-0.5527344,0-1,0.4477539-1,1v10.3071289H43.8232422V11  c0-0.5522461-0.4472656-1-1-1H13.6367188c-0.5527344,0-1,0.4477539-1,1v77H11c-0.5527344,0-1,0.4477539-1,1s0.4472656,1,1,1h78  c0.5527344,0,1-0.4477539,1-1S89.5527344,88,89,88z M61.1728516,12h24.1904297v76H69.8974609V22.3071289  c0-0.5522461-0.4472656-1-1-1h-7.7246094V12z M67.8974609,23.3071289V88H43.8232422V23.3071289H67.8974609z M14.6367188,12  h27.1865234v10.3071289V88H14.6367188V12z"/><path d="M51.4941406,36.347168c0.5527344,0,1-0.4477539,1-1v-4.9194336c0-0.5522461-0.4472656-1-1-1s-1,0.4477539-1,1v4.9194336  C50.4941406,35.8994141,50.9414062,36.347168,51.4941406,36.347168z"/><path d="M60.2265625,36.347168c0.5527344,0,1-0.4477539,1-1v-4.9194336c0-0.5522461-0.4472656-1-1-1s-1,0.4477539-1,1v4.9194336  C59.2265625,35.8994141,59.6738281,36.347168,60.2265625,36.347168z"/><path d="M51.4941406,48.2900391c0.5527344,0,1-0.4477539,1-1v-4.9199219c0-0.5522461-0.4472656-1-1-1s-1,0.4477539-1,1v4.9199219  C50.4941406,47.8422852,50.9414062,48.2900391,51.4941406,48.2900391z"/><path d="M60.2265625,48.2900391c0.5527344,0,1-0.4477539,1-1v-4.9199219c0-0.5522461-0.4472656-1-1-1s-1,0.4477539-1,1v4.9199219  C59.2265625,47.8422852,59.6738281,48.2900391,60.2265625,48.2900391z"/><path d="M51.4941406,60.2324219c0.5527344,0,1-0.4477539,1-1v-4.9194336c0-0.5522461-0.4472656-1-1-1s-1,0.4477539-1,1v4.9194336  C50.4941406,59.784668,50.9414062,60.2324219,51.4941406,60.2324219z"/><path d="M60.2265625,60.2324219c0.5527344,0,1-0.4477539,1-1v-4.9194336c0-0.5522461-0.4472656-1-1-1s-1,0.4477539-1,1v4.9194336  C59.2265625,59.784668,59.6738281,60.2324219,60.2265625,60.2324219z"/><path d="M51.4941406,71.6049805c0.5527344,0,1-0.4477539,1-1v-4.9199219c0-0.5522461-0.4472656-1-1-1s-1,0.4477539-1,1v4.9199219  C50.4941406,71.1572266,50.9414062,71.6049805,51.4941406,71.6049805z"/><path d="M60.2265625,71.6049805c0.5527344,0,1-0.4477539,1-1v-4.9199219c0-0.5522461-0.4472656-1-1-1s-1,0.4477539-1,1v4.9199219  C59.2265625,71.1572266,59.6738281,71.6049805,60.2265625,71.6049805z"/><path d="M51.4941406,82.9770508c0.5527344,0,1-0.4477539,1-1v-4.9194336c0-0.5522461-0.4472656-1-1-1s-1,0.4477539-1,1v4.9194336  C50.4941406,82.5292969,50.9414062,82.9770508,51.4941406,82.9770508z"/><path d="M60.2265625,82.9770508c0.5527344,0,1-0.4477539,1-1v-4.9194336c0-0.5522461-0.4472656-1-1-1s-1,0.4477539-1,1v4.9194336  C59.2265625,82.5292969,59.6738281,82.9770508,60.2265625,82.9770508z"/><path d="M77.6337891,82.9770508c0.5527344,0,1-0.4477539,1-1v-4.9194336c0-0.5522461-0.4472656-1-1-1s-1,0.4477539-1,1v4.9194336  C76.6337891,82.5292969,77.0810547,82.9770508,77.6337891,82.9770508z"/><path d="M77.6337891,71.3144531c0.5527344,0,1-0.4477539,1-1v-4.9199219c0-0.5522461-0.4472656-1-1-1s-1,0.4477539-1,1v4.9199219  C76.6337891,70.8666992,77.0810547,71.3144531,77.6337891,71.3144531z"/><path d="M77.6337891,59.6513672c0.5527344,0,1-0.4477539,1-1v-4.9194336c0-0.5522461-0.4472656-1-1-1s-1,0.4477539-1,1v4.9194336  C76.6337891,59.2036133,77.0810547,59.6513672,77.6337891,59.6513672z"/><path d="M77.6337891,47.9887695c0.5527344,0,1-0.4477539,1-1v-4.9194336c0-0.5522461-0.4472656-1-1-1s-1,0.4477539-1,1v4.9194336  C76.6337891,47.5410156,77.0810547,47.9887695,77.6337891,47.9887695z"/><path d="M77.6337891,36.3261719c0.5527344,0,1-0.4477539,1-1V30.40625c0-0.5522461-0.4472656-1-1-1s-1,0.4477539-1,1v4.9199219  C76.6337891,35.878418,77.0810547,36.3261719,77.6337891,36.3261719z"/><path d="M77.6337891,24.6630859c0.5527344,0,1-0.4477539,1-1v-4.9194336c0-0.5522461-0.4472656-1-1-1s-1,0.4477539-1,1v4.9194336  C76.6337891,24.215332,77.0810547,24.6630859,77.6337891,24.6630859z"/><path d="M21.3183594,18.7983398c-0.5527344,0-1,0.4477539-1,1V80.612793c0,0.5522461,0.4472656,1,1,1s1-0.4477539,1-1V19.7983398  C22.3183594,19.2460938,21.8710938,18.7983398,21.3183594,18.7983398z"/><path d="M28.2304688,18.7983398c-0.5527344,0-1,0.4477539-1,1V80.612793c0,0.5522461,0.4472656,1,1,1s1-0.4477539,1-1V19.7983398  C29.2304688,19.2460938,28.7832031,18.7983398,28.2304688,18.7983398z"/><path d="M35.1425781,18.7983398c-0.5527344,0-1,0.4477539-1,1V80.612793c0,0.5522461,0.4472656,1,1,1s1-0.4477539,1-1V19.7983398  C36.1425781,19.2460938,35.6953125,18.7983398,35.1425781,18.7983398z"/><text x="0" y="115" fill="#000000" font-size="5px" font-weight="bold" font-family="'Helvetica Neue', Helvetica, Arial-Unicode, Arial, Sans-serif">Created by Made</text><text x="0" y="120" fill="#000000" font-size="5px" font-weight="bold" font-family="'Helvetica Neue', Helvetica, Arial-Unicode, Arial, Sans-serif">from the Noun Project</text></svg>