<svg xmlns="http://www.w3.org/2000/svg" xmlns:xlink="http://www.w3.org/1999/xlink" version="1.1" x="0px" y="0px" viewBox="0 0 100 125" style="enable-background:new 0 0 100 100;" xml:space="preserve"><path d="M89,88h-1.9023438V20.1293945c0-0.5522461-0.4472656-1-1-1h-23.125c-0.5527344,0-1,0.4477539-1,1v8.9838867h-9.0605469V11  c0-0.5522461-0.4472656-1-1-1H32.1328125c-0.5527344,0-1,0.4477539-1,1v18.4716797l-8.0107422,7.7412109  c-0.1943359,0.1884766-0.3046875,0.4482422-0.3046875,0.7192383v10.2939453h-8.9150391c-0.5527344,0-1,0.4477539-1,1V88H11  c-0.5527344,0-1,0.4477539-1,1s0.4472656,1,1,1h78c0.5527344,0,1-0.4477539,1-1S89.5527344,88,89,88z M63.9726562,21.1293945h21.125  V88H71.6767578V30.1132812c0-0.5522461-0.4472656-1-1-1h-6.7041016V21.1293945z M69.6767578,31.1132812V88H48.6542969V31.1132812  H69.6767578z M24.8173828,38.3564453l8.0107422-7.7412109c0.1943359-0.1884766,0.3046875-0.4482422,0.3046875-0.7192383V12  h17.7792969v17.1132812h-3.2578125c-0.5527344,0-1,0.4477539-1,1V88h-9.7285156V49.2260742c0-0.5522461-0.4472656-1-1-1H24.8173828  V38.3564453z M14.9023438,50.2260742h20.0234375V88H14.9023438V50.2260742z"/><path d="M21.0585938,56.612793c-0.5527344,0-1,0.4477539-1,1v4.34375c0,0.5522461,0.4472656,1,1,1s1-0.4477539,1-1v-4.34375  C22.0585938,57.0605469,21.6113281,56.612793,21.0585938,56.612793z"/><path d="M28.7695312,56.612793c-0.5527344,0-1,0.4477539-1,1v4.34375c0,0.5522461,0.4472656,1,1,1s1-0.4477539,1-1v-4.34375  C29.7695312,57.0605469,29.3222656,56.612793,28.7695312,56.612793z"/><path d="M21.0585938,67.1577148c-0.5527344,0-1,0.4477539-1,1v4.34375c0,0.5522461,0.4472656,1,1,1s1-0.4477539,1-1v-4.34375  C22.0585938,67.6054688,21.6113281,67.1577148,21.0585938,67.1577148z"/><path d="M28.7695312,67.1577148c-0.5527344,0-1,0.4477539-1,1v4.34375c0,0.5522461,0.4472656,1,1,1s1-0.4477539,1-1v-4.34375  C29.7695312,67.6054688,29.3222656,67.1577148,28.7695312,67.1577148z"/><path d="M21.0585938,77.7021484c-0.5527344,0-1,0.4477539-1,1v4.3442383c0,0.5522461,0.4472656,1,1,1s1-0.4477539,1-1v-4.3442383  C22.0585938,78.1499023,21.6113281,77.7021484,21.0585938,77.7021484z"/><path d="M28.7695312,77.7021484c-0.5527344,0-1,0.4477539-1,1v4.3442383c0,0.5522461,0.4472656,1,1,1s1-0.4477539,1-1v-4.3442383  C29.7695312,78.1499023,29.3222656,77.7021484,28.7695312,77.7021484z"/><path d="M41.7900391,84.0463867c0.5527344,0,1-0.4477539,1-1v-4.3442383c0-0.5522461-0.4472656-1-1-1s-1,0.4477539-1,1v4.3442383  C40.7900391,83.5986328,41.2373047,84.0463867,41.7900391,84.0463867z"/><path d="M41.7900391,73.7578125c0.5527344,0,1-0.4477539,1-1v-4.34375c0-0.5522461-0.4472656-1-1-1s-1,0.4477539-1,1v4.34375  C40.7900391,73.3100586,41.2373047,73.7578125,41.7900391,73.7578125z"/><path d="M41.7900391,63.4697266c0.5527344,0,1-0.4477539,1-1v-4.34375c0-0.5522461-0.4472656-1-1-1s-1,0.4477539-1,1v4.34375  C40.7900391,63.0219727,41.2373047,63.4697266,41.7900391,63.4697266z"/><path d="M41.7900391,53.1811523c0.5527344,0,1-0.4477539,1-1v-4.34375c0-0.5522461-0.4472656-1-1-1s-1,0.4477539-1,1v4.34375  C40.7900391,52.7333984,41.2373047,53.1811523,41.7900391,53.1811523z"/><path d="M41.7900391,42.8930664c0.5527344,0,1-0.4477539,1-1v-4.34375c0-0.5522461-0.4472656-1-1-1s-1,0.4477539-1,1v4.34375  C40.7900391,42.4453125,41.2373047,42.8930664,41.7900391,42.8930664z"/><path d="M34.0029297,36.5493164c-0.5527344,0-1,0.4477539-1,1v4.34375c0,0.5522461,0.4472656,1,1,1s1-0.4477539,1-1v-4.34375  C35.0029297,36.9970703,34.5556641,36.5493164,34.0029297,36.5493164z"/><path d="M41.7900391,32.6049805c0.5527344,0,1-0.4477539,1-1v-4.3442383c0-0.5522461-0.4472656-1-1-1s-1,0.4477539-1,1v4.3442383  C40.7900391,32.1572266,41.2373047,32.6049805,41.7900391,32.6049805z"/><path d="M41.7900391,21.8535156c0.5527344,0,1-0.4477539,1-1v-4.34375c0-0.5522461-0.4472656-1-1-1s-1,0.4477539-1,1v4.34375  C40.7900391,21.4057617,41.2373047,21.8535156,41.7900391,21.8535156z"/><path d="M55.3095703,42.6269531c0.5527344,0,1-0.4477539,1-1v-4.34375c0-0.5522461-0.4472656-1-1-1s-1,0.4477539-1,1v4.34375  C54.3095703,42.1791992,54.7568359,42.6269531,55.3095703,42.6269531z"/><path d="M63.0205078,42.6269531c0.5527344,0,1-0.4477539,1-1v-4.34375c0-0.5522461-0.4472656-1-1-1s-1,0.4477539-1,1v4.34375  C62.0205078,42.1791992,62.4677734,42.6269531,63.0205078,42.6269531z"/><path d="M55.3095703,53.171875c0.5527344,0,1-0.4477539,1-1v-4.34375c0-0.5522461-0.4472656-1-1-1s-1,0.4477539-1,1v4.34375  C54.3095703,52.7241211,54.7568359,53.171875,55.3095703,53.171875z"/><path d="M63.0205078,53.171875c0.5527344,0,1-0.4477539,1-1v-4.34375c0-0.5522461-0.4472656-1-1-1s-1,0.4477539-1,1v4.34375  C62.0205078,52.7241211,62.4677734,53.171875,63.0205078,53.171875z"/><path d="M55.3095703,63.7167969c0.5527344,0,1-0.4477539,1-1v-4.34375c0-0.5522461-0.4472656-1-1-1s-1,0.4477539-1,1v4.34375  C54.3095703,63.269043,54.7568359,63.7167969,55.3095703,63.7167969z"/><path d="M63.0205078,63.7167969c0.5527344,0,1-0.4477539,1-1v-4.34375c0-0.5522461-0.4472656-1-1-1s-1,0.4477539-1,1v4.34375  C62.0205078,63.269043,62.4677734,63.7167969,63.0205078,63.7167969z"/><path d="M55.3095703,73.7578125c0.5527344,0,1-0.4477539,1-1v-4.34375c0-0.5522461-0.4472656-1-1-1s-1,0.4477539-1,1v4.34375  C54.3095703,73.3100586,54.7568359,73.7578125,55.3095703,73.7578125z"/><path d="M63.0205078,73.7578125c0.5527344,0,1-0.4477539,1-1v-4.34375c0-0.5522461-0.4472656-1-1-1s-1,0.4477539-1,1v4.34375  C62.0205078,73.3100586,62.4677734,73.7578125,63.0205078,73.7578125z"/><path d="M55.3095703,83.7993164c0.5527344,0,1-0.4477539,1-1v-4.3442383c0-0.5522461-0.4472656-1-1-1s-1,0.4477539-1,1v4.3442383  C54.3095703,83.3515625,54.7568359,83.7993164,55.3095703,83.7993164z"/><path d="M63.0205078,83.7993164c0.5527344,0,1-0.4477539,1-1v-4.3442383c0-0.5522461-0.4472656-1-1-1s-1,0.4477539-1,1v4.3442383  C62.0205078,83.3515625,62.4677734,83.7993164,63.0205078,83.7993164z"/><path d="M78.390625,83.7993164c0.5527344,0,1-0.4477539,1-1v-4.3442383c0-0.5522461-0.4472656-1-1-1s-1,0.4477539-1,1v4.3442383  C77.390625,83.3515625,77.8378906,83.7993164,78.390625,83.7993164z"/><path d="M78.390625,73.5014648c0.5527344,0,1-0.4477539,1-1v-4.34375c0-0.5522461-0.4472656-1-1-1s-1,0.4477539-1,1v4.34375  C77.390625,73.0537109,77.8378906,73.5014648,78.390625,73.5014648z"/><path d="M78.390625,63.2036133c0.5527344,0,1-0.4477539,1-1v-4.34375c0-0.5522461-0.4472656-1-1-1s-1,0.4477539-1,1v4.34375  C77.390625,62.7558594,77.8378906,63.2036133,78.390625,63.2036133z"/><path d="M78.390625,52.9057617c0.5527344,0,1-0.4477539,1-1v-4.34375c0-0.5522461-0.4472656-1-1-1s-1,0.4477539-1,1v4.34375  C77.390625,52.4580078,77.8378906,52.9057617,78.390625,52.9057617z"/><path d="M78.390625,42.6083984c0.5527344,0,1-0.4477539,1-1v-4.3442383c0-0.5522461-0.4472656-1-1-1s-1,0.4477539-1,1v4.3442383  C77.390625,42.1606445,77.8378906,42.6083984,78.390625,42.6083984z"/><path d="M78.390625,32.3105469c0.5527344,0,1-0.4477539,1-1v-4.34375c0-0.5522461-0.4472656-1-1-1s-1,0.4477539-1,1v4.34375  C77.390625,31.862793,77.8378906,32.3105469,78.390625,32.3105469z"/><text x="0" y="115" fill="#000000" font-size="5px" font-weight="bold" font-family="'Helvetica Neue', Helvetica, Arial-Unicode, Arial, Sans-serif">Created by Made</text><text x="0" y="120" fill="#000000" font-size="5px" font-weight="bold" font-family="'Helvetica Neue', Helvetica, Arial-Unicode, Arial, Sans-serif">from the Noun Project</text></svg>