<svg xmlns="http://www.w3.org/2000/svg" xmlns:xlink="http://www.w3.org/1999/xlink" version="1.1" x="0px" y="0px" viewBox="0 0 100 125" style="enable-background:new 0 0 100 100;" xml:space="preserve"><path d="M36.9013672,29.4277344c-0.5522461,0-1,0.4477539-1,1v4.9194336c0,0.5522461,0.4477539,1,1,1s1-0.4477539,1-1v-4.9194336  C37.9013672,29.8754883,37.4536133,29.4277344,36.9013672,29.4277344z"/><path d="M45.6337891,29.4277344c-0.5522461,0-1,0.4477539-1,1v4.9194336c0,0.5522461,0.4477539,1,1,1s1-0.4477539,1-1v-4.9194336  C46.6337891,29.8754883,46.1860352,29.4277344,45.6337891,29.4277344z"/><path d="M36.9013672,41.3701172c-0.5522461,0-1,0.4477539-1,1v4.9199219c0,0.5522461,0.4477539,1,1,1s1-0.4477539,1-1v-4.9199219  C37.9013672,41.8178711,37.4536133,41.3701172,36.9013672,41.3701172z"/><path d="M45.6337891,41.3701172c-0.5522461,0-1,0.4477539-1,1v4.9199219c0,0.5522461,0.4477539,1,1,1s1-0.4477539,1-1v-4.9199219  C46.6337891,41.8178711,46.1860352,41.3701172,45.6337891,41.3701172z"/><path d="M36.9013672,53.3129883c-0.5522461,0-1,0.4477539-1,1v4.9194336c0,0.5522461,0.4477539,1,1,1s1-0.4477539,1-1v-4.9194336  C37.9013672,53.7607422,37.4536133,53.3129883,36.9013672,53.3129883z"/><path d="M45.6337891,53.3129883c-0.5522461,0-1,0.4477539-1,1v4.9194336c0,0.5522461,0.4477539,1,1,1s1-0.4477539,1-1v-4.9194336  C46.6337891,53.7607422,46.1860352,53.3129883,45.6337891,53.3129883z"/><path d="M36.9013672,64.6850586c-0.5522461,0-1,0.4477539-1,1v4.9199219c0,0.5522461,0.4477539,1,1,1s1-0.4477539,1-1v-4.9199219  C37.9013672,65.1328125,37.4536133,64.6850586,36.9013672,64.6850586z"/><path d="M45.6337891,64.6850586c-0.5522461,0-1,0.4477539-1,1v4.9199219c0,0.5522461,0.4477539,1,1,1s1-0.4477539,1-1v-4.9199219  C46.6337891,65.1328125,46.1860352,64.6850586,45.6337891,64.6850586z"/><path d="M36.9013672,76.0576172c-0.5522461,0-1,0.4477539-1,1v4.9194336c0,0.5522461,0.4477539,1,1,1s1-0.4477539,1-1v-4.9194336  C37.9013672,76.5053711,37.4536133,76.0576172,36.9013672,76.0576172z"/><path d="M45.6337891,76.0576172c-0.5522461,0-1,0.4477539-1,1v4.9194336c0,0.5522461,0.4477539,1,1,1s1-0.4477539,1-1v-4.9194336  C46.6337891,76.5053711,46.1860352,76.0576172,45.6337891,76.0576172z"/><path d="M63.0410156,82.9770508c0.5522461,0,1-0.4477539,1-1v-4.9194336c0-0.5522461-0.4477539-1-1-1s-1,0.4477539-1,1v4.9194336  C62.0410156,82.5292969,62.4887695,82.9770508,63.0410156,82.9770508z"/><path d="M63.0410156,71.3144531c0.5522461,0,1-0.4477539,1-1v-4.9199219c0-0.5522461-0.4477539-1-1-1s-1,0.4477539-1,1v4.9199219  C62.0410156,70.8666992,62.4887695,71.3144531,63.0410156,71.3144531z"/><path d="M63.0410156,59.6513672c0.5522461,0,1-0.4477539,1-1v-4.9194336c0-0.5522461-0.4477539-1-1-1s-1,0.4477539-1,1v4.9194336  C62.0410156,59.2036133,62.4887695,59.6513672,63.0410156,59.6513672z"/><path d="M63.0410156,47.9887695c0.5522461,0,1-0.4477539,1-1v-4.9194336c0-0.5522461-0.4477539-1-1-1s-1,0.4477539-1,1v4.9194336  C62.0410156,47.5410156,62.4887695,47.9887695,63.0410156,47.9887695z"/><path d="M63.0410156,36.3261719c0.5522461,0,1-0.4477539,1-1V30.40625c0-0.5522461-0.4477539-1-1-1s-1,0.4477539-1,1v4.9199219  C62.0410156,35.878418,62.4887695,36.3261719,63.0410156,36.3261719z"/><path d="M63.0410156,24.6630859c0.5522461,0,1-0.4477539,1-1v-4.9194336c0-0.5522461-0.4477539-1-1-1s-1,0.4477539-1,1v4.9194336  C62.0410156,24.215332,62.4887695,24.6630859,63.0410156,24.6630859z"/><path d="M84.1357422,65.8681641c-3.2338867,0-5.8647461,2.6308594-5.8647461,5.8647461v4.9916992  c0,2.8919067,2.1065063,5.2957764,4.8647461,5.772522V88H72.7695312V11c0-0.5522461-0.4477539-1-1-1H45.5800781  c-0.5522461,0-1,0.4477539-1,1v10.3071289H28.2304688c-0.5522461,0-1,0.4477539-1,1V88H16.8642578v-5.5028687  c2.7582397-0.4767456,4.8647461-2.8806152,4.8647461-5.772522v-4.9916992c0-3.2338867-2.6308594-5.8647461-5.8647461-5.8647461  C12.6308594,65.8681641,10,68.4990234,10,71.7329102v4.9916992c0,2.8918457,2.1064453,5.2956543,4.8642578,5.7724609V88H11  c-0.5522461,0-1,0.4477539-1,1s0.4477539,1,1,1h78c0.5522461,0,1-0.4477539,1-1s-0.4477539-1-1-1h-3.8642578v-5.5029297  C87.8935547,82.0202637,90,79.6164551,90,76.7246094v-4.9916992C90,68.4990234,87.3691406,65.8681641,84.1357422,65.8681641z   M12,76.7246094v-4.9916992c0-2.1308594,1.7333984-3.8647461,3.8642578-3.8647461s3.8647461,1.7338867,3.8647461,3.8647461  v4.9916992c0,2.1308594-1.7338867,3.8642578-3.8647461,3.8642578S12,78.8554688,12,76.7246094z M46.5800781,12h24.1894531v76  H55.3046875V22.3071289c0-0.5522461-0.4477539-1-1-1h-7.7246094V12z M29.2304688,23.3071289h24.0742188V88H29.2304688V23.3071289z   M88,76.7246094c0,2.1308594-1.7333984,3.8642578-3.8642578,3.8642578s-3.8647461-1.7333984-3.8647461-3.8642578v-4.9916992  c0-2.1308594,1.7338867-3.8647461,3.8647461-3.8647461S88,69.6020508,88,71.7329102V76.7246094z"/><text x="0" y="115" fill="#000000" font-size="5px" font-weight="bold" font-family="'Helvetica Neue', Helvetica, Arial-Unicode, Arial, Sans-serif">Created by Made</text><text x="0" y="120" fill="#000000" font-size="5px" font-weight="bold" font-family="'Helvetica Neue', Helvetica, Arial-Unicode, Arial, Sans-serif">from the Noun Project</text></svg>