<svg xmlns="http://www.w3.org/2000/svg" xmlns:xlink="http://www.w3.org/1999/xlink" version="1.1" x="0px" y="0px" viewBox="0 0 46 74.975" enable-background="new 0 0 46 59.98" xml:space="preserve"><g><path fill="#000000" d="M45,7.98c-14.63,0-21.17-7.57-21.23-7.64c-0.38-0.46-1.16-0.46-1.54,0C22.17,0.42,15.7,7.98,1,7.98   c-0.55,0-1,0.45-1,1v19.08C0,38.5,4.69,48.41,12.55,54.59c3.17,2.49,6.59,4.29,10.17,5.35c0.09,0.03,0.19,0.04,0.28,0.04   s0.19-0.01,0.28-0.04c3.58-1.06,7-2.86,10.17-5.35C41.31,48.41,46,38.5,46,28.07V8.98C46,8.43,45.55,7.98,45,7.98z M44,28.07   c0,9.82-4.4,19.15-11.78,24.95c-2.88,2.27-5.98,3.92-9.22,4.92c-3.24-1-6.33-2.66-9.22-4.92C6.4,47.22,2,37.89,2,28.07V9.97   c12.24-0.27,18.87-5.5,21-7.55c2.13,2.05,8.76,7.27,21,7.55V28.07z"/><path fill="#000000" d="M22.44,7.99c-3.02,2.05-8.16,4.69-15.56,5.63C6.37,13.68,6,14.11,6,14.61v13.46   c0,8.61,3.83,16.76,10.25,21.8c2.02,1.59,4.17,2.84,6.38,3.7c0.12,0.05,0.24,0.07,0.37,0.07s0.25-0.02,0.37-0.07   c2.21-0.87,4.36-2.11,6.38-3.7C36.17,44.83,40,36.67,40,28.07V14.61c0-0.5-0.37-0.93-0.87-0.99c-7.4-0.94-12.55-3.58-15.56-5.63   C23.22,7.76,22.78,7.76,22.44,7.99z M38,15.48v12.58c0,8-3.55,15.56-9.49,20.23c-1.76,1.38-3.61,2.48-5.51,3.27   c-1.9-0.79-3.75-1.89-5.51-3.27C11.55,43.63,8,36.07,8,28.07V15.48c6.9-1.02,11.88-3.45,15-5.47C26.12,12.04,31.1,14.46,38,15.48z"/><path fill="#000000" d="M13.71,29.28c-0.39-0.39-1.02-0.39-1.41,0s-0.39,1.02,0,1.41l8,8c0.19,0.19,0.44,0.29,0.71,0.29   c0.01,0,0.02,0,0.03,0c0.28-0.01,0.54-0.13,0.72-0.34l14-16c0.36-0.42,0.32-1.05-0.09-1.41c-0.42-0.36-1.05-0.32-1.41,0.09   l-13.3,15.2L13.71,29.28z"/></g><text x="0" y="74.97999999999999" fill="#000000" font-size="5px" font-weight="bold" font-family="'Helvetica Neue', Helvetica, Arial-Unicode, Arial, Sans-serif">Created by Ben Davis</text><text x="0" y="79.97999999999999" fill="#000000" font-size="5px" font-weight="bold" font-family="'Helvetica Neue', Helvetica, Arial-Unicode, Arial, Sans-serif">from the Noun Project</text></svg>