<svg xmlns="http://www.w3.org/2000/svg" xmlns:xlink="http://www.w3.org/1999/xlink" xmlns:sketch="http://www.bohemiancoding.com/sketch/ns" viewBox="0 0 46 75" version="1.1" x="0px" y="0px"><title>48 - Protected System (Solid)</title><desc>Created with Sketch.</desc><g stroke="none" stroke-width="1" fill="none" fill-rule="evenodd" sketch:type="MSPage"><g sketch:type="MSLayerGroup" fill="#000000"><path d="M45,8 C30.372,8 23.831,0.434 23.768,0.36 C23.388,-0.096 22.612,-0.096 22.232,0.36 C22.168,0.436 15.695,8 1,8 C0.448,8 0,8.448 0,9 L0,28.085 C0,38.518 4.69,48.433 12.546,54.606 C15.713,57.095 19.134,58.896 22.715,59.959 C22.809,59.986 22.904,60 23,60 C23.096,60 23.191,59.986 23.285,59.959 C26.866,58.896 30.287,57.095 33.454,54.606 C41.31,48.433 46,38.518 46,28.085 L46,9 C46,8.448 45.552,8 45,8 L45,8 Z M44,28.085 C44,37.909 39.596,47.236 32.218,53.034 C29.335,55.3 26.235,56.955 23,57.955 C19.765,56.955 16.665,55.3 13.782,53.034 C6.404,47.236 2,37.909 2,28.085 L2,9.989 C14.242,9.717 20.865,4.492 23,2.443 C25.135,4.492 31.758,9.717 44,9.989 L44,28.085 L44,28.085 Z" sketch:type="MSShapeGroup"/><path d="M22.438,8.003 C19.423,10.052 14.275,12.692 6.873,13.636 C6.374,13.7 6,14.125 6,14.628 L6,28.085 C6,36.692 9.833,44.843 16.254,49.889 C18.276,51.479 20.423,52.725 22.635,53.592 C22.752,53.638 22.876,53.661 23,53.661 C23.124,53.661 23.248,53.638 23.365,53.592 C25.576,52.725 27.723,51.479 29.747,49.889 C36.167,44.843 40,36.692 40,28.085 L40,14.628 C40,14.125 39.626,13.7 39.126,13.636 C31.725,12.692 26.577,10.052 23.562,8.003 C23.223,7.773 22.777,7.773 22.438,8.003 L22.438,8.003 Z M34.248,21.341 C34.612,20.927 35.243,20.884 35.659,21.248 C36.074,21.611 36.116,22.243 35.752,22.659 L21.752,38.659 C21.57,38.867 21.31,38.99 21.033,39 L21,39 C20.735,39 20.481,38.895 20.293,38.707 L12.293,30.707 C11.902,30.316 11.902,29.684 12.293,29.293 C12.684,28.902 13.316,28.902 13.707,29.293 L20.951,36.537 L34.248,21.341 L34.248,21.341 Z" sketch:type="MSShapeGroup"/></g></g><text x="0" y="75" fill="#000000" font-size="5px" font-weight="bold" font-family="'Helvetica Neue', Helvetica, Arial-Unicode, Arial, Sans-serif">Created by Ben Davis</text><text x="0" y="80" fill="#000000" font-size="5px" font-weight="bold" font-family="'Helvetica Neue', Helvetica, Arial-Unicode, Arial, Sans-serif">from the Noun Project</text></svg>