<svg id="github_svg" version="1.1" xmlns="http://www.w3.org/2000/svg" xmlns:xlink="http://www.w3.org/1999/xlink" viewBox="0, 0, 400,400" ><g id="svgg"><path id="github_svg_path1" class="github_svg_path1" d="M338.400 58.300 L 338.400 66.200 200.100 66.200 L 61.800 66.200 61.587 58.600 C 61.470 54.420,61.335 109.545,61.287 181.100 C 61.200 310.962,61.201 311.200,62.000 311.200 C 62.440 311.200,62.800 311.380,62.800 311.600 C 62.800 311.820,63.160 312.000,63.600 312.000 C 64.040 312.000,64.400 312.180,64.400 312.400 C 64.400 312.620,64.760 312.800,65.200 312.800 C 65.640 312.800,66.000 312.980,66.000 313.200 C 66.000 313.420,66.540 313.600,67.200 313.600 C 67.860 313.600,68.400 313.780,68.400 314.000 C 68.400 314.220,68.760 314.400,69.200 314.400 C 69.640 314.400,70.000 314.580,70.000 314.800 C 70.000 315.020,70.360 315.200,70.800 315.200 C 71.240 315.200,71.600 315.380,71.600 315.600 C 71.600 315.820,71.960 316.000,72.400 316.000 C 72.840 316.000,73.200 316.180,73.200 316.400 C 73.200 316.620,73.560 316.800,74.000 316.800 C 74.440 316.800,74.800 316.980,74.800 317.200 C 74.800 317.420,75.250 317.600,75.800 317.600 C 76.350 317.600,76.800 317.780,76.800 318.000 C 76.800 318.220,77.160 318.400,77.600 318.400 C 78.040 318.400,78.400 318.580,78.400 318.800 C 78.400 319.020,78.760 319.200,79.200 319.200 C 79.640 319.200,80.000 319.380,80.000 319.600 C 80.000 319.820,80.360 320.000,80.800 320.000 C 81.240 320.000,81.600 320.180,81.600 320.400 C 81.600 320.620,81.949 320.800,82.376 320.800 C 82.803 320.800,83.264 320.980,83.400 321.200 C 83.536 321.420,84.087 321.600,84.624 321.600 C 85.161 321.600,85.600 321.780,85.600 322.000 C 85.600 322.220,85.960 322.400,86.400 322.400 C 86.840 322.400,87.200 322.580,87.200 322.800 C 87.200 323.020,87.560 323.200,88.000 323.200 C 88.440 323.200,88.800 323.380,88.800 323.600 C 88.800 323.820,89.049 324.000,89.354 324.000 C 89.659 324.000,90.424 324.269,91.054 324.598 C 91.684 324.926,92.605 325.196,93.100 325.198 C 93.595 325.199,94.000 325.380,94.000 325.600 C 94.000 325.820,94.360 326.000,94.800 326.000 C 95.240 326.000,95.600 326.180,95.600 326.400 C 95.600 326.620,95.960 326.800,96.400 326.800 C 96.840 326.800,97.200 326.980,97.200 327.200 C 97.200 327.420,97.560 327.600,98.000 327.600 C 98.440 327.600,98.800 327.780,98.800 328.000 C 98.800 328.220,99.160 328.400,99.600 328.400 C 100.040 328.400,100.400 328.580,100.400 328.800 C 100.400 329.020,100.940 329.200,101.600 329.200 C 102.260 329.200,102.800 329.380,102.800 329.600 C 102.800 329.820,103.160 330.000,103.600 330.000 C 104.040 330.000,104.400 330.180,104.400 330.400 C 104.400 330.620,104.760 330.800,105.200 330.800 C 105.640 330.800,106.000 330.980,106.000 331.200 C 106.000 331.420,106.360 331.600,106.800 331.600 C 107.240 331.600,107.600 331.780,107.600 332.000 C 107.600 332.220,107.960 332.400,108.400 332.400 C 108.840 332.400,109.200 332.580,109.200 332.800 C 109.200 333.020,109.650 333.200,110.200 333.200 C 110.750 333.200,111.200 333.380,111.200 333.600 C 111.200 333.820,111.560 334.000,112.000 334.000 C 112.440 334.000,112.800 334.180,112.800 334.400 C 112.800 334.620,113.160 334.800,113.600 334.800 C 114.040 334.800,114.400 334.980,114.400 335.200 C 114.400 335.420,114.760 335.600,115.200 335.600 C 115.640 335.600,116.000 335.780,116.000 336.000 C 116.000 336.220,116.360 336.400,116.800 336.400 C 117.240 336.400,117.600 336.580,117.600 336.800 C 117.600 337.020,118.140 337.200,118.800 337.200 C 119.460 337.200,120.000 337.380,120.000 337.600 C 120.000 337.820,120.360 338.000,120.800 338.000 C 121.240 338.000,121.600 338.180,121.600 338.400 C 121.600 338.620,121.960 338.800,122.400 338.800 C 122.840 338.800,123.200 338.980,123.200 339.200 C 123.200 339.420,123.560 339.600,124.000 339.600 C 124.440 339.600,124.800 339.780,124.800 340.000 C 124.800 340.220,125.115 340.406,125.500 340.413 C 125.885 340.420,126.549 340.690,126.976 341.013 C 127.404 341.336,128.259 341.600,128.876 341.600 C 129.494 341.600,130.000 341.780,130.000 342.000 C 130.000 342.220,130.360 342.400,130.800 342.400 C 131.240 342.400,131.600 342.580,131.600 342.800 C 131.600 343.020,131.960 343.200,132.400 343.200 C 132.840 343.200,133.200 343.380,133.200 343.600 C 133.200 343.820,133.560 344.000,134.000 344.000 C 134.440 344.000,134.800 344.180,134.800 344.400 C 134.800 344.620,135.160 344.800,135.600 344.800 C 136.040 344.800,136.400 344.980,136.400 345.200 C 136.400 345.420,136.940 345.600,137.600 345.600 C 138.260 345.600,138.800 345.780,138.800 346.000 C 138.800 346.220,139.160 346.400,139.600 346.400 C 140.040 346.400,140.400 346.580,140.400 346.800 C 140.400 347.020,140.745 347.200,141.167 347.200 C 141.588 347.200,141.993 347.335,142.067 347.500 C 142.288 347.999,145.622 349.600,146.438 349.600 C 146.857 349.600,147.200 349.780,147.200 350.000 C 147.200 350.220,147.560 350.400,148.000 350.400 C 148.440 350.400,148.800 350.580,148.800 350.800 C 148.800 351.020,149.160 351.200,149.600 351.200 C 150.040 351.200,150.400 351.380,150.400 351.600 C 150.400 351.820,150.760 352.000,151.200 352.000 C 151.640 352.000,152.000 352.180,152.000 352.400 C 152.000 352.620,152.360 352.800,152.800 352.800 C 153.240 352.800,153.600 352.980,153.600 353.200 C 153.600 353.420,154.140 353.600,154.800 353.600 C 155.460 353.600,156.000 353.780,156.000 354.000 C 156.000 354.220,156.360 354.400,156.800 354.400 C 157.240 354.400,157.600 354.580,157.600 354.800 C 157.600 355.020,157.945 355.200,158.367 355.200 C 158.788 355.200,159.193 355.335,159.267 355.500 C 159.452 355.918,163.092 357.600,163.811 357.600 C 164.135 357.600,164.400 357.764,164.400 357.965 C 164.400 358.166,165.120 358.451,166.000 358.600 C 166.880 358.749,167.600 359.034,167.600 359.235 C 167.600 359.436,167.960 359.600,168.400 359.600 C 168.840 359.600,169.200 359.780,169.200 360.000 C 169.200 360.220,169.560 360.400,170.000 360.400 C 170.440 360.400,170.800 360.580,170.800 360.800 C 170.800 361.020,171.340 361.200,172.000 361.200 C 172.660 361.200,173.200 361.380,173.200 361.600 C 173.200 361.820,173.560 362.000,174.000 362.000 C 174.440 362.000,174.800 362.146,174.800 362.325 C 174.800 362.504,175.430 362.898,176.200 363.200 C 176.970 363.502,177.600 363.896,177.600 364.075 C 177.600 364.254,177.960 364.400,178.400 364.400 C 178.840 364.400,179.200 364.580,179.200 364.800 C 179.200 365.020,179.740 365.200,180.400 365.200 C 181.060 365.200,181.600 365.380,181.600 365.600 C 181.600 365.820,181.960 366.000,182.400 366.000 C 182.840 366.000,183.200 366.180,183.200 366.400 C 183.200 366.620,183.560 366.800,184.000 366.800 C 184.440 366.800,184.800 366.980,184.800 367.200 C 184.800 367.420,185.160 367.600,185.600 367.600 C 186.040 367.600,186.400 367.780,186.400 368.000 C 186.400 368.220,186.760 368.400,187.200 368.400 C 187.640 368.400,188.000 368.580,188.000 368.800 C 188.000 369.020,188.540 369.200,189.200 369.200 C 189.860 369.200,190.400 369.380,190.400 369.600 C 190.400 369.820,190.745 370.000,191.167 370.000 C 191.588 370.000,191.993 370.135,192.067 370.300 C 192.287 370.795,197.254 373.200,198.056 373.200 C 198.465 373.200,198.800 373.380,198.800 373.600 C 198.800 373.820,199.340 374.000,200.000 374.000 C 200.660 374.000,201.200 373.820,201.200 373.600 C 201.200 373.380,201.515 373.201,201.900 373.203 C 202.675 373.207,209.322 369.986,209.533 369.504 C 209.607 369.337,210.192 369.200,210.833 369.200 C 211.475 369.200,212.000 369.020,212.000 368.800 C 212.000 368.580,212.360 368.400,212.800 368.400 C 213.240 368.400,213.600 368.220,213.600 368.000 C 213.600 367.780,213.960 367.600,214.400 367.600 C 214.840 367.600,215.200 367.420,215.200 367.200 C 215.200 366.980,215.560 366.800,216.000 366.800 C 216.440 366.800,216.800 366.620,216.800 366.400 C 216.800 366.180,217.160 366.000,217.600 366.000 C 218.040 366.000,218.400 365.820,218.400 365.600 C 218.400 365.380,218.940 365.200,219.600 365.200 C 220.260 365.200,220.800 365.020,220.800 364.800 C 220.800 364.580,221.160 364.400,221.600 364.400 C 222.040 364.400,222.400 364.254,222.400 364.075 C 222.400 363.896,223.030 363.502,223.800 363.200 C 224.570 362.898,225.200 362.504,225.200 362.325 C 225.200 362.146,225.560 362.000,226.000 362.000 C 226.440 362.000,226.800 361.820,226.800 361.600 C 226.800 361.380,227.340 361.200,228.000 361.200 C 228.660 361.200,229.200 361.020,229.200 360.800 C 229.200 360.580,229.560 360.400,230.000 360.400 C 230.440 360.400,230.800 360.220,230.800 360.000 C 230.800 359.780,231.160 359.600,231.600 359.600 C 232.040 359.600,232.400 359.436,232.400 359.235 C 232.400 359.034,233.120 358.749,234.000 358.600 C 234.880 358.451,235.600 358.166,235.600 357.965 C 235.600 357.764,235.862 357.600,236.182 357.600 C 236.908 357.600,242.152 355.138,242.333 354.712 C 242.407 354.541,242.812 354.400,243.233 354.400 C 243.655 354.400,244.000 354.220,244.000 354.000 C 244.000 353.780,244.540 353.600,245.200 353.600 C 245.860 353.600,246.400 353.420,246.400 353.200 C 246.400 352.980,246.760 352.800,247.200 352.800 C 247.640 352.800,248.000 352.620,248.000 352.400 C 248.000 352.180,248.360 352.000,248.800 352.000 C 249.240 352.000,249.600 351.820,249.600 351.600 C 249.600 351.380,249.960 351.200,250.400 351.200 C 250.840 351.200,251.200 351.020,251.200 350.800 C 251.200 350.580,251.560 350.400,252.000 350.400 C 252.440 350.400,252.800 350.220,252.800 350.000 C 252.800 349.780,253.135 349.600,253.544 349.600 C 254.346 349.600,259.313 347.195,259.533 346.700 C 259.607 346.535,260.012 346.400,260.433 346.400 C 260.855 346.400,261.200 346.220,261.200 346.000 C 261.200 345.780,261.740 345.600,262.400 345.600 C 263.060 345.600,263.600 345.420,263.600 345.200 C 263.600 344.980,263.960 344.800,264.400 344.800 C 264.840 344.800,265.200 344.620,265.200 344.400 C 265.200 344.180,265.560 344.000,266.000 344.000 C 266.440 344.000,266.800 343.820,266.800 343.600 C 266.800 343.380,267.160 343.200,267.600 343.200 C 268.040 343.200,268.400 343.020,268.400 342.800 C 268.400 342.580,268.760 342.400,269.200 342.400 C 269.640 342.400,270.000 342.220,270.000 342.000 C 270.000 341.780,270.506 341.600,271.124 341.600 C 271.741 341.600,272.596 341.336,273.024 341.013 C 273.451 340.690,274.115 340.420,274.500 340.413 C 274.885 340.406,275.200 340.220,275.200 340.000 C 275.200 339.780,275.560 339.600,276.000 339.600 C 276.440 339.600,276.800 339.420,276.800 339.200 C 276.800 338.980,277.160 338.800,277.600 338.800 C 278.040 338.800,278.400 338.620,278.400 338.400 C 278.400 338.180,278.760 338.000,279.200 338.000 C 279.640 338.000,280.000 337.820,280.000 337.600 C 280.000 337.380,280.540 337.200,281.200 337.200 C 281.860 337.200,282.400 337.020,282.400 336.800 C 282.400 336.580,282.760 336.400,283.200 336.400 C 283.640 336.400,284.000 336.220,284.000 336.000 C 284.000 335.780,284.360 335.600,284.800 335.600 C 285.240 335.600,285.600 335.420,285.600 335.200 C 285.600 334.980,285.960 334.800,286.400 334.800 C 286.840 334.800,287.200 334.620,287.200 334.400 C 287.200 334.180,287.560 334.000,288.000 334.000 C 288.440 334.000,288.800 333.820,288.800 333.600 C 288.800 333.380,289.250 333.200,289.800 333.200 C 290.350 333.200,290.800 333.020,290.800 332.800 C 290.800 332.580,291.160 332.400,291.600 332.400 C 292.040 332.400,292.400 332.220,292.400 332.000 C 292.400 331.780,292.760 331.600,293.200 331.600 C 293.640 331.600,294.000 331.420,294.000 331.200 C 294.000 330.980,294.360 330.800,294.800 330.800 C 295.240 330.800,295.600 330.620,295.600 330.400 C 295.600 330.180,295.960 330.000,296.400 330.000 C 296.840 330.000,297.200 329.820,297.200 329.600 C 297.200 329.380,297.740 329.200,298.400 329.200 C 299.060 329.200,299.600 329.020,299.600 328.800 C 299.600 328.580,299.960 328.400,300.400 328.400 C 300.840 328.400,301.200 328.220,301.200 328.000 C 301.200 327.780,301.560 327.600,302.000 327.600 C 302.440 327.600,302.800 327.420,302.800 327.200 C 302.800 326.980,303.160 326.800,303.600 326.800 C 304.040 326.800,304.400 326.620,304.400 326.400 C 304.400 326.180,304.760 326.000,305.200 326.000 C 305.640 326.000,306.000 325.840,306.000 325.645 C 306.000 325.450,306.810 325.169,307.800 325.021 C 308.790 324.872,309.600 324.582,309.600 324.375 C 309.600 324.169,309.960 324.000,310.400 324.000 C 310.840 324.000,311.200 323.820,311.200 323.600 C 311.200 323.380,311.560 323.200,312.000 323.200 C 312.440 323.200,312.800 323.020,312.800 322.800 C 312.800 322.580,313.160 322.400,313.600 322.400 C 314.040 322.400,314.400 322.220,314.400 322.000 C 314.400 321.780,314.839 321.600,315.376 321.600 C 315.913 321.600,316.464 321.420,316.600 321.200 C 316.736 320.980,317.197 320.800,317.624 320.800 C 318.051 320.800,318.400 320.620,318.400 320.400 C 318.400 320.180,318.760 320.000,319.200 320.000 C 319.640 320.000,320.000 319.820,320.000 319.600 C 320.000 319.380,320.360 319.200,320.800 319.200 C 321.240 319.200,321.600 319.020,321.600 318.800 C 321.600 318.580,321.960 318.400,322.400 318.400 C 322.840 318.400,323.200 318.220,323.200 318.000 C 323.200 317.780,323.650 317.600,324.200 317.600 C 324.750 317.600,325.200 317.420,325.200 317.200 C 325.200 316.980,325.560 316.800,326.000 316.800 C 326.440 316.800,326.800 316.620,326.800 316.400 C 326.800 316.180,327.160 316.000,327.600 316.000 C 328.040 316.000,328.400 315.820,328.400 315.600 C 328.400 315.380,328.760 315.200,329.200 315.200 C 329.640 315.200,330.000 315.020,330.000 314.800 C 330.000 314.580,330.360 314.400,330.800 314.400 C 331.240 314.400,331.600 314.220,331.600 314.000 C 331.600 313.780,332.140 313.600,332.800 313.600 C 333.460 313.600,334.000 313.420,334.000 313.200 C 334.000 312.980,334.360 312.800,334.800 312.800 C 335.240 312.800,335.600 312.620,335.600 312.400 C 335.600 312.180,335.960 312.000,336.400 312.000 C 336.840 312.000,337.200 311.820,337.200 311.600 C 337.200 311.380,337.560 311.200,338.000 311.200 C 338.798 311.200,338.800 310.933,338.800 180.800 C 338.800 109.080,338.710 50.400,338.600 50.400 C 338.490 50.400,338.400 53.955,338.400 58.300 M208.600 99.619 C 216.455 100.268,218.194 100.481,218.580 100.843 C 218.789 101.040,219.723 101.200,220.656 101.200 C 221.589 101.200,222.464 101.380,222.600 101.600 C 222.736 101.820,223.456 102.000,224.200 102.000 C 224.944 102.000,225.664 102.180,225.800 102.400 C 225.936 102.620,226.429 102.800,226.895 102.800 C 227.796 102.800,230.139 103.465,231.295 104.049 C 231.677 104.242,232.341 104.400,232.771 104.400 C 233.201 104.400,233.664 104.580,233.800 104.800 C 233.936 105.020,234.487 105.200,235.024 105.200 C 235.561 105.200,236.000 105.380,236.000 105.600 C 236.000 105.820,236.349 106.000,236.776 106.000 C 237.203 106.000,237.664 106.180,237.800 106.400 C 237.936 106.620,238.487 106.800,239.024 106.800 C 239.561 106.800,240.000 106.980,240.000 107.200 C 240.000 107.420,240.360 107.600,240.800 107.600 C 241.240 107.600,241.600 107.780,241.600 108.000 C 241.600 108.220,241.841 108.400,242.137 108.400 C 242.876 108.400,250.414 112.191,253.593 114.161 C 262.890 119.924,270.986 126.739,277.600 134.371 C 278.810 135.768,279.983 137.110,280.207 137.355 C 283.062 140.481,288.462 148.884,291.772 155.354 C 292.997 157.749,294.000 159.954,294.000 160.254 C 294.000 160.554,294.180 160.800,294.400 160.800 C 294.620 160.800,294.800 161.072,294.800 161.405 C 294.800 161.738,294.959 162.323,295.153 162.705 C 295.348 163.087,295.684 163.850,295.900 164.400 C 296.116 164.950,296.489 165.850,296.730 166.400 C 302.467 179.537,304.602 202.547,301.648 219.400 C 300.454 226.211,296.832 238.654,294.720 243.200 C 292.726 247.491,289.895 253.024,289.178 254.032 C 288.750 254.632,288.400 255.238,288.400 255.377 C 288.400 255.517,287.288 257.289,285.930 259.315 C 274.561 276.274,259.352 288.995,240.800 297.061 C 232.069 300.857,229.041 301.225,226.602 298.787 L 225.400 297.586 225.171 278.893 C 224.905 257.099,224.487 254.840,219.743 249.590 C 218.587 248.310,218.437 247.969,218.957 247.804 C 219.311 247.692,219.915 247.490,220.300 247.355 C 220.685 247.220,222.080 246.957,223.400 246.771 C 227.236 246.228,231.767 245.310,233.000 244.825 C 233.440 244.652,234.520 244.294,235.400 244.029 C 241.180 242.288,247.220 238.840,251.935 234.588 C 255.495 231.378,261.600 221.932,261.600 219.634 C 261.600 219.389,261.762 218.877,261.961 218.495 C 262.531 217.397,263.702 212.708,264.426 208.621 C 265.105 204.790,265.134 191.568,264.470 189.000 C 262.579 181.692,259.511 175.066,256.785 172.401 C 254.157 169.832,254.113 169.578,255.633 165.800 C 255.951 165.010,256.168 163.581,256.648 159.109 C 257.102 154.896,254.864 144.054,253.298 142.874 C 250.757 140.958,237.766 145.657,227.648 152.151 C 226.441 152.926,225.570 153.212,224.848 153.070 C 224.272 152.957,221.550 152.417,218.800 151.870 C 210.488 150.216,208.315 150.000,200.000 150.000 C 191.685 150.000,189.512 150.216,181.200 151.870 C 178.450 152.417,175.736 152.956,175.168 153.067 C 174.414 153.216,173.447 152.822,171.568 151.601 C 164.520 147.019,152.924 142.400,148.471 142.400 C 146.869 142.400,146.198 143.104,145.417 145.600 C 144.271 149.264,144.088 150.065,143.580 153.636 C 142.913 158.320,143.407 162.472,145.422 169.110 C 145.617 169.752,145.473 170.224,144.935 170.710 C 136.240 178.566,132.457 197.306,136.419 212.900 C 137.295 216.349,137.708 217.845,137.992 218.600 C 139.283 222.032,141.637 226.826,142.497 227.775 C 142.884 228.202,143.200 228.698,143.200 228.879 C 143.200 230.820,152.014 238.353,157.529 241.126 C 163.355 244.055,168.044 245.474,176.200 246.775 C 178.429 247.131,179.819 247.430,181.134 247.836 C 181.494 247.947,181.149 248.589,180.075 249.810 C 179.199 250.805,178.180 252.255,177.811 253.032 C 176.693 255.390,175.200 259.744,175.200 260.649 C 175.200 263.193,165.258 265.458,159.367 264.257 C 154.125 263.188,147.369 258.751,146.000 255.478 C 143.066 248.464,133.514 242.126,127.313 243.079 C 123.613 243.647,124.178 245.557,129.000 248.779 C 132.920 251.399,136.435 255.592,138.576 260.200 C 141.596 266.701,142.289 267.842,144.581 270.076 C 146.621 272.065,148.550 273.268,152.800 275.205 C 156.947 277.094,165.470 277.425,172.085 275.953 C 173.121 275.723,174.156 275.649,174.385 275.791 C 175.016 276.181,174.933 296.319,174.294 297.561 C 172.644 300.772,169.157 301.032,162.600 298.433 C 132.175 286.371,109.142 260.895,100.728 230.000 C 95.083 209.271,96.107 183.116,103.215 166.500 C 103.427 166.005,103.801 165.105,104.047 164.500 C 104.292 163.895,104.652 163.087,104.847 162.705 C 105.041 162.323,105.200 161.738,105.200 161.405 C 105.200 161.072,105.380 160.800,105.600 160.800 C 105.820 160.800,105.999 160.575,105.997 160.300 C 105.993 159.780,109.198 153.151,109.622 152.800 C 109.755 152.690,110.119 152.015,110.430 151.300 C 110.741 150.585,111.131 150.000,111.298 150.000 C 111.464 150.000,111.600 149.816,111.600 149.591 C 111.600 146.552,125.396 130.268,134.083 123.053 C 141.446 116.939,155.294 108.400,157.849 108.400 C 158.152 108.400,158.400 108.220,158.400 108.000 C 158.400 107.780,158.672 107.600,159.005 107.600 C 159.338 107.600,159.968 107.420,160.405 107.200 C 160.842 106.980,161.558 106.620,161.995 106.400 C 162.432 106.180,163.062 106.000,163.395 106.000 C 163.728 106.000,164.000 105.820,164.000 105.600 C 164.000 105.380,164.540 105.200,165.200 105.200 C 165.860 105.200,166.400 105.020,166.400 104.800 C 166.400 104.580,166.839 104.400,167.376 104.400 C 167.913 104.400,168.464 104.220,168.600 104.000 C 168.736 103.780,169.366 103.600,170.000 103.600 C 170.634 103.600,171.264 103.420,171.400 103.200 C 171.536 102.980,172.166 102.800,172.800 102.800 C 173.434 102.800,174.064 102.620,174.200 102.400 C 174.336 102.180,175.056 102.000,175.800 102.000 C 176.544 102.000,177.264 101.820,177.400 101.600 C 177.536 101.380,178.436 101.200,179.400 101.200 C 180.364 101.200,181.249 101.045,181.366 100.854 C 181.484 100.664,182.889 100.376,184.490 100.213 C 194.214 99.226,201.626 99.043,208.600 99.619 M135.626 245.614 C 136.458 246.059,136.669 247.386,135.977 247.814 C 134.685 248.613,132.713 246.869,133.642 245.749 C 134.188 245.092,134.598 245.064,135.626 245.614 M139.934 249.439 C 141.045 250.217,141.003 252.117,139.870 252.332 C 138.318 252.626,136.696 249.632,138.100 249.065 C 138.888 248.747,138.970 248.763,139.934 249.439 M144.389 255.077 C 145.559 256.564,145.320 257.764,143.820 257.934 C 142.435 258.092,141.600 257.198,141.600 255.557 C 141.600 253.759,143.143 253.493,144.389 255.077 M149.600 260.800 C 150.597 261.797,150.636 263.445,149.675 263.960 C 148.109 264.798,145.283 261.946,146.375 260.630 C 147.097 259.760,148.641 259.841,149.600 260.800 M156.250 264.639 C 157.476 264.968,158.277 266.584,157.611 267.386 C 156.504 268.720,153.200 267.696,153.200 266.018 C 153.200 264.664,154.371 264.135,156.250 264.639 M173.520 265.280 C 174.880 266.640,173.004 268.684,170.834 268.208 C 169.338 267.879,168.862 266.636,169.826 265.571 C 170.612 264.703,172.773 264.533,173.520 265.280 M165.525 266.416 C 166.566 267.386,166.606 267.737,165.771 268.571 C 164.489 269.854,161.600 269.251,161.600 267.701 C 161.600 265.733,163.961 264.959,165.525 266.416 " fill="transparent" stroke-width="1em" stroke-opacity="0" stroke="black"></path><path id="github_svg_path2" class="github_svg_path2" stroke="white !important" d="M189.200 100.464 C 185.515 100.965,181.846 101.577,178.600 102.235 C 176.008 102.760,175.027 102.997,171.500 103.952 C 169.433 104.511,163.914 106.396,162.600 106.991 C 161.940 107.290,160.590 107.852,159.600 108.241 C 137.009 117.114,114.468 139.980,105.223 163.400 C 105.049 163.840,104.721 164.650,104.494 165.200 C 104.267 165.750,103.864 166.830,103.600 167.600 C 103.336 168.370,102.972 169.360,102.793 169.800 C 102.614 170.240,102.376 170.960,102.266 171.400 C 102.155 171.840,101.683 173.460,101.217 175.000 C 97.973 185.723,96.653 205.502,98.453 216.400 C 99.466 222.529,100.514 227.390,101.655 231.261 C 102.327 233.537,102.971 235.808,103.086 236.306 C 103.201 236.804,103.454 237.310,103.648 237.430 C 103.841 237.549,104.000 237.980,104.000 238.386 C 104.000 238.792,104.386 239.906,104.857 240.862 C 105.328 241.818,105.849 242.960,106.014 243.400 C 109.346 252.271,119.277 266.952,127.362 274.960 C 131.900 279.454,143.555 288.800,144.622 288.800 C 144.762 288.800,145.354 289.139,145.938 289.553 C 148.080 291.071,157.750 296.108,160.600 297.189 C 161.040 297.356,161.850 297.678,162.400 297.904 C 168.827 300.543,170.314 300.650,172.633 298.646 L 174.200 297.293 174.327 287.580 C 174.475 276.220,174.438 275.933,172.901 276.411 C 168.692 277.722,158.588 277.674,154.600 276.325 C 149.272 274.523,147.581 273.513,144.015 270.000 C 141.471 267.495,140.840 266.477,138.217 260.640 C 136.175 256.097,132.641 251.813,128.754 249.170 C 125.082 246.674,123.566 244.363,124.900 243.299 C 126.345 242.147,130.883 242.140,133.600 243.285 C 135.929 244.267,136.629 244.627,137.129 245.100 C 137.419 245.375,137.820 245.600,138.018 245.600 C 138.759 245.600,143.127 250.303,145.076 253.200 C 148.254 257.922,153.039 262.400,154.905 262.400 C 155.214 262.400,155.590 262.523,155.741 262.674 C 156.915 263.848,166.106 264.553,168.481 263.651 C 168.987 263.459,170.120 263.087,171.000 262.823 C 174.377 261.812,174.800 261.551,174.800 260.478 C 174.800 258.066,177.365 252.086,179.438 249.664 L 180.746 248.135 177.473 247.615 C 174.533 247.147,171.753 246.584,167.600 245.615 C 165.564 245.140,159.589 242.885,158.533 242.193 C 158.035 241.867,157.464 241.600,157.263 241.600 C 156.794 241.600,153.070 239.351,150.998 237.816 C 147.902 235.523,143.198 230.425,141.759 227.804 C 141.516 227.362,140.753 225.986,140.063 224.746 C 138.367 221.698,136.163 214.910,135.600 211.000 C 135.347 209.240,134.973 206.825,134.770 205.633 C 132.790 194.035,135.871 181.278,142.852 172.171 L 144.859 169.552 144.265 167.476 C 142.105 159.927,142.294 153.712,144.944 145.200 C 145.974 141.892,147.646 141.250,152.154 142.432 C 153.059 142.669,154.520 143.050,155.400 143.277 C 156.280 143.505,157.405 143.851,157.900 144.046 C 158.395 144.241,159.205 144.558,159.700 144.751 C 162.111 145.691,166.602 148.037,170.302 150.287 L 174.403 152.783 176.902 152.192 C 192.279 148.556,205.079 148.402,221.000 151.662 C 223.200 152.112,225.107 152.546,225.237 152.625 C 225.368 152.705,227.119 151.793,229.128 150.600 C 238.646 144.949,246.338 142.000,251.560 142.000 C 253.768 142.000,254.251 142.481,255.175 145.600 C 256.793 151.063,257.200 153.517,257.200 157.825 C 257.200 161.486,256.943 163.163,255.722 167.490 L 255.132 169.581 257.066 172.090 C 258.130 173.471,259.090 174.690,259.200 174.800 C 259.396 174.996,259.770 175.635,261.164 178.155 C 268.765 191.891,266.407 217.418,256.321 230.600 C 254.008 233.624,247.961 239.200,246.996 239.200 C 246.857 239.200,245.959 239.740,245.000 240.400 C 244.041 241.060,243.158 241.600,243.038 241.600 C 242.918 241.600,241.641 242.140,240.200 242.800 C 238.759 243.460,237.325 244.000,237.014 244.000 C 236.702 244.000,236.349 244.159,236.229 244.354 C 236.108 244.549,235.513 244.804,234.905 244.921 C 234.297 245.038,233.080 245.328,232.200 245.566 C 230.193 246.107,225.874 246.992,222.121 247.631 L 219.241 248.121 220.543 249.642 C 221.259 250.478,222.037 251.576,222.272 252.081 C 225.828 259.735,226.000 261.070,226.000 281.095 L 226.000 297.542 227.500 298.793 C 230.182 301.031,233.521 300.198,245.600 294.277 C 251.804 291.237,255.966 288.693,261.362 284.643 C 275.952 273.692,286.753 259.926,294.505 242.400 C 295.754 239.578,295.883 239.230,297.183 235.200 C 298.966 229.673,299.167 228.938,300.379 223.500 C 302.877 212.297,303.071 194.943,300.826 183.600 C 300.630 182.610,300.349 181.080,300.202 180.200 C 300.054 179.320,299.789 178.150,299.613 177.600 C 299.437 177.050,299.068 175.790,298.793 174.800 C 298.159 172.520,296.850 168.446,296.414 167.400 C 296.231 166.960,295.851 165.970,295.570 165.200 C 294.450 162.134,291.500 155.839,289.759 152.800 C 287.089 148.139,281.889 140.248,280.797 139.200 C 280.683 139.090,279.796 138.010,278.826 136.800 C 269.742 125.461,253.430 113.518,238.900 107.569 C 238.405 107.366,237.595 107.028,237.100 106.817 C 235.951 106.327,230.203 104.413,228.500 103.952 C 224.973 102.997,223.992 102.760,221.400 102.235 C 218.003 101.547,214.463 100.971,210.200 100.413 C 206.448 99.922,192.951 99.955,189.200 100.464 M133.842 246.332 C 133.497 246.891,134.690 247.728,135.428 247.445 C 135.779 247.310,135.992 246.975,135.902 246.700 C 135.700 246.087,134.163 245.812,133.842 246.332 M138.000 250.171 C 138.000 250.908,139.092 252.000,139.829 252.000 C 140.616 252.000,140.563 250.148,139.767 249.843 C 138.710 249.437,138.000 249.569,138.000 250.171 M142.005 255.273 C 142.021 256.786,142.534 257.600,143.472 257.600 C 145.020 257.600,144.672 255.054,143.100 254.873 C 142.391 254.792,142.002 254.934,142.005 255.273 M146.986 260.823 C 146.506 261.599,147.169 263.058,148.220 263.537 C 149.483 264.112,150.000 263.851,150.000 262.638 C 150.000 261.056,147.698 259.670,146.986 260.823 M154.042 265.349 C 153.009 266.593,154.884 268.008,156.771 267.409 C 157.852 267.066,157.826 266.204,156.711 265.423 C 155.613 264.654,154.641 264.627,154.042 265.349 M170.300 265.757 C 169.371 266.462,169.416 267.074,170.437 267.620 C 172.125 268.523,174.248 267.063,173.158 265.749 C 172.585 265.059,171.215 265.062,170.300 265.757 M162.900 266.516 C 160.927 267.407,162.409 269.186,164.655 268.622 C 165.385 268.439,165.618 268.146,165.526 267.529 C 165.368 266.476,164.085 265.980,162.900 266.516 " fill="transparent" stroke-width="1em" stroke-opacity="0" stroke="white"></path><path id="github_svg_path3" class="github_svg_path3" d="M61.200 21.735 C 61.200 33.689,61.318 48.584,61.462 54.835 L 61.724 66.200 200.000 66.200 L 338.275 66.200 338.538 54.235 C 338.682 47.654,338.800 32.759,338.800 21.135 L 338.800 0.000 200.000 0.000 L 61.200 0.000 61.200 21.735 M191.000 99.629 C 184.226 100.173,181.580 100.509,181.366 100.854 C 181.249 101.045,180.364 101.200,179.400 101.200 C 178.436 101.200,177.536 101.380,177.400 101.600 C 177.264 101.820,176.544 102.000,175.800 102.000 C 175.056 102.000,174.336 102.180,174.200 102.400 C 174.064 102.620,173.434 102.800,172.800 102.800 C 172.166 102.800,171.536 102.980,171.400 103.200 C 171.264 103.420,170.634 103.600,170.000 103.600 C 169.366 103.600,168.736 103.780,168.600 104.000 C 168.464 104.220,167.913 104.400,167.376 104.400 C 166.839 104.400,166.400 104.580,166.400 104.800 C 166.400 105.020,165.860 105.200,165.200 105.200 C 164.540 105.200,164.000 105.380,164.000 105.600 C 164.000 105.820,163.728 106.000,163.395 106.000 C 163.062 106.000,162.432 106.180,161.995 106.400 C 161.558 106.620,160.842 106.980,160.405 107.200 C 159.968 107.420,159.338 107.600,159.005 107.600 C 158.672 107.600,158.400 107.780,158.400 108.000 C 158.400 108.220,158.152 108.400,157.849 108.400 C 155.294 108.400,141.446 116.939,134.083 123.053 C 125.396 130.268,111.600 146.552,111.600 149.591 C 111.600 149.816,111.464 150.000,111.298 150.000 C 111.131 150.000,110.741 150.585,110.430 151.300 C 110.119 152.015,109.755 152.690,109.622 152.800 C 109.198 153.151,105.993 159.780,105.997 160.300 C 105.999 160.575,105.820 160.800,105.600 160.800 C 105.380 160.800,105.200 161.072,105.200 161.405 C 105.200 161.738,105.041 162.323,104.847 162.705 C 104.652 163.087,104.292 163.895,104.047 164.500 C 103.801 165.105,103.427 166.005,103.215 166.500 C 96.431 182.360,95.170 206.316,100.022 227.200 C 101.093 231.814,103.668 239.543,103.905 238.861 C 104.008 238.564,103.901 237.934,103.667 237.461 C 103.078 236.272,102.259 233.677,101.062 229.200 C 100.138 225.745,99.639 223.287,98.426 216.200 C 96.637 205.749,97.999 185.636,101.217 175.000 C 101.683 173.460,102.155 171.840,102.266 171.400 C 102.376 170.960,102.614 170.240,102.793 169.800 C 102.972 169.360,103.336 168.370,103.600 167.600 C 107.897 155.085,116.797 140.922,126.600 130.999 C 136.243 121.237,149.119 112.358,159.600 108.241 C 160.590 107.852,161.940 107.290,162.600 106.991 C 163.865 106.418,169.364 104.533,171.400 103.974 C 177.281 102.361,182.216 101.406,189.800 100.413 C 191.560 100.183,196.150 99.995,200.000 99.995 C 206.573 99.995,209.732 100.243,216.000 101.250 C 219.183 101.762,223.717 102.672,225.600 103.179 C 226.370 103.386,227.630 103.723,228.400 103.929 C 230.152 104.398,235.896 106.304,237.100 106.817 C 237.595 107.028,238.405 107.366,238.900 107.569 C 253.430 113.518,269.742 125.461,278.826 136.800 C 279.796 138.010,280.683 139.090,280.797 139.200 C 281.889 140.248,287.089 148.139,289.759 152.800 C 291.500 155.839,294.450 162.134,295.570 165.200 C 295.851 165.970,296.231 166.960,296.414 167.400 C 296.850 168.446,298.159 172.520,298.793 174.800 C 299.068 175.790,299.437 177.050,299.613 177.600 C 299.789 178.150,300.054 179.320,300.202 180.200 C 300.349 181.080,300.630 182.610,300.826 183.600 C 302.871 193.932,302.915 209.545,300.929 220.400 C 300.025 225.342,299.903 226.391,300.348 225.389 C 301.336 223.165,302.644 213.442,303.061 205.221 C 303.636 193.893,300.596 175.254,296.730 166.400 C 296.489 165.850,296.116 164.950,295.900 164.400 C 295.684 163.850,295.348 163.087,295.153 162.705 C 294.959 162.323,294.800 161.738,294.800 161.405 C 294.800 161.072,294.620 160.800,294.400 160.800 C 294.180 160.800,294.000 160.554,294.000 160.254 C 294.000 158.536,287.356 146.978,282.817 140.800 C 281.605 139.150,280.430 137.600,280.207 137.355 C 279.983 137.110,278.810 135.768,277.600 134.371 C 270.986 126.739,262.890 119.924,253.593 114.161 C 250.414 112.191,242.876 108.400,242.137 108.400 C 241.841 108.400,241.600 108.220,241.600 108.000 C 241.600 107.780,241.240 107.600,240.800 107.600 C 240.360 107.600,240.000 107.420,240.000 107.200 C 240.000 106.980,239.561 106.800,239.024 106.800 C 238.487 106.800,237.936 106.620,237.800 106.400 C 237.664 106.180,237.203 106.000,236.776 106.000 C 236.349 106.000,236.000 105.820,236.000 105.600 C 236.000 105.380,235.561 105.200,235.024 105.200 C 234.487 105.200,233.936 105.020,233.800 104.800 C 233.664 104.580,233.201 104.400,232.771 104.400 C 232.341 104.400,231.677 104.242,231.295 104.049 C 230.139 103.465,227.796 102.800,226.895 102.800 C 226.429 102.800,225.936 102.620,225.800 102.400 C 225.664 102.180,224.944 102.000,224.200 102.000 C 223.456 102.000,222.736 101.820,222.600 101.600 C 222.464 101.380,221.589 101.200,220.656 101.200 C 219.723 101.200,218.789 101.040,218.580 100.843 C 217.387 99.724,199.589 98.940,191.000 99.629 M145.925 142.900 C 142.725 147.983,141.953 159.399,144.265 167.476 L 144.859 169.552 142.852 172.171 C 135.871 181.278,132.790 194.035,134.770 205.633 C 134.973 206.825,135.347 209.240,135.600 211.000 C 136.163 214.910,138.367 221.698,140.063 224.746 C 140.753 225.986,141.516 227.362,141.759 227.804 C 143.198 230.425,147.902 235.523,150.998 237.816 C 153.070 239.351,156.794 241.600,157.263 241.600 C 157.464 241.600,158.035 241.867,158.533 242.193 C 159.589 242.885,165.564 245.140,167.600 245.615 C 171.753 246.584,174.533 247.147,177.473 247.615 L 180.746 248.135 179.438 249.664 C 177.365 252.086,174.800 258.066,174.800 260.478 C 174.800 261.550,174.380 261.810,171.000 262.824 C 168.525 263.566,167.688 263.941,168.434 263.973 C 170.792 264.074,175.200 261.909,175.200 260.649 C 175.200 259.744,176.693 255.390,177.811 253.032 C 178.180 252.255,179.199 250.805,180.075 249.810 C 181.149 248.589,181.494 247.947,181.134 247.836 C 179.819 247.430,178.429 247.131,176.200 246.775 C 168.044 245.474,163.355 244.055,157.529 241.126 C 152.014 238.353,143.200 230.820,143.200 228.879 C 143.200 228.698,142.884 228.202,142.497 227.775 C 141.858 227.070,139.613 222.710,138.751 220.500 C 138.558 220.005,138.241 219.195,138.046 218.700 C 137.714 217.857,137.338 216.518,136.419 212.900 C 132.457 197.306,136.240 178.566,144.935 170.710 C 145.473 170.224,145.617 169.752,145.422 169.110 C 143.407 162.472,142.913 158.320,143.580 153.636 C 144.088 150.065,144.271 149.264,145.417 145.600 C 146.198 143.104,146.869 142.400,148.471 142.400 C 152.924 142.400,164.520 147.019,171.568 151.601 C 173.447 152.822,174.414 153.216,175.168 153.067 C 175.736 152.956,178.450 152.408,181.200 151.850 C 183.950 151.292,187.280 150.699,188.600 150.533 C 190.483 150.295,190.715 150.199,189.679 150.088 C 188.127 149.921,177.105 151.819,175.153 152.590 C 174.742 152.752,172.985 151.920,170.353 150.319 C 164.351 146.667,159.288 144.283,155.400 143.277 C 154.520 143.050,153.059 142.669,152.154 142.432 C 149.234 141.666,146.576 141.866,145.925 142.900 M247.600 142.464 C 240.594 144.379,236.767 146.064,229.128 150.600 C 227.119 151.793,225.368 152.705,225.237 152.625 C 224.925 152.435,217.753 150.980,214.200 150.386 C 212.660 150.128,210.860 149.990,210.200 150.078 C 209.315 150.196,209.629 150.316,211.400 150.537 C 212.720 150.701,216.050 151.292,218.800 151.850 C 221.550 152.408,224.272 152.957,224.848 153.070 C 225.570 153.212,226.441 152.926,227.648 152.151 C 237.766 145.657,250.757 140.958,253.298 142.874 C 254.864 144.054,257.102 154.896,256.648 159.109 C 256.168 163.581,255.951 165.010,255.633 165.800 C 254.113 169.578,254.157 169.832,256.785 172.401 C 259.511 175.066,262.579 181.692,264.470 189.000 C 265.134 191.568,265.105 204.790,264.426 208.621 C 263.702 212.708,262.531 217.397,261.961 218.495 C 261.762 218.877,261.600 219.389,261.600 219.634 C 261.600 221.932,255.495 231.378,251.935 234.588 C 247.220 238.840,241.180 242.288,235.400 244.029 C 234.520 244.294,233.440 244.652,233.000 244.825 C 231.767 245.310,227.236 246.228,223.400 246.771 C 222.080 246.957,220.640 247.237,220.200 247.393 C 219.760 247.549,219.156 247.751,218.857 247.842 C 218.481 247.957,218.754 248.495,219.743 249.590 C 224.486 254.839,224.905 257.101,225.171 278.874 L 225.400 297.549 226.575 298.774 C 227.221 299.448,228.027 300.000,228.366 300.000 C 228.731 300.000,228.375 299.499,227.491 298.771 L 226.000 297.542 226.000 281.095 C 226.000 261.070,225.828 259.735,222.272 252.081 C 222.037 251.576,221.259 250.478,220.543 249.642 L 219.241 248.121 222.121 247.631 C 225.874 246.992,230.193 246.107,232.200 245.566 C 233.080 245.328,234.297 245.038,234.905 244.921 C 235.513 244.804,236.108 244.549,236.229 244.354 C 236.349 244.159,236.702 244.000,237.014 244.000 C 237.325 244.000,238.759 243.460,240.200 242.800 C 241.641 242.140,242.918 241.600,243.038 241.600 C 243.158 241.600,244.041 241.060,245.000 240.400 C 245.959 239.740,246.857 239.200,246.996 239.200 C 247.961 239.200,254.008 233.624,256.321 230.600 C 266.407 217.418,268.765 191.891,261.164 178.155 C 259.770 175.635,259.396 174.996,259.200 174.800 C 259.090 174.690,258.130 173.471,257.066 172.090 L 255.132 169.581 255.722 167.490 C 257.660 160.626,257.750 155.063,256.028 148.600 C 254.193 141.715,253.142 140.950,247.600 142.464 M194.400 149.600 C 193.369 149.760,195.845 149.881,200.200 149.884 C 205.317 149.886,207.081 149.788,205.600 149.583 C 202.909 149.211,196.842 149.220,194.400 149.600 M299.449 227.600 C 299.075 229.265,298.796 230.198,297.183 235.200 C 295.883 239.230,295.754 239.578,294.505 242.400 C 284.188 265.726,267.686 283.304,245.897 294.179 C 243.310 295.470,241.271 296.604,241.366 296.699 C 241.461 296.794,243.397 295.935,245.669 294.789 C 260.538 287.292,272.167 277.690,282.230 264.600 C 283.875 262.460,288.400 255.696,288.400 255.377 C 288.400 255.238,288.738 254.646,289.151 254.062 C 290.030 252.818,292.618 247.787,294.429 243.800 C 296.215 239.868,300.070 228.070,299.903 227.049 C 299.799 226.410,299.687 226.546,299.449 227.600 M104.000 239.774 C 104.000 240.314,106.148 244.785,106.324 244.609 C 106.440 244.494,106.343 243.994,106.108 243.499 C 105.873 243.005,105.385 241.925,105.022 241.100 C 104.448 239.796,104.000 239.214,104.000 239.774 M128.000 242.398 C 127.670 242.612,126.941 242.791,126.380 242.794 C 122.939 242.815,124.137 246.031,128.754 249.170 C 132.641 251.813,136.175 256.097,138.217 260.640 C 140.840 266.477,141.471 267.495,144.015 270.000 C 147.581 273.513,149.272 274.523,154.600 276.325 C 158.588 277.674,168.692 277.722,172.901 276.411 C 174.438 275.933,174.475 276.220,174.327 287.580 L 174.200 297.293 172.633 298.646 C 171.772 299.391,171.274 300.000,171.527 300.000 C 171.780 300.000,172.575 299.475,173.294 298.833 L 174.600 297.667 174.719 286.972 C 174.852 275.022,174.921 275.318,172.134 275.941 C 165.486 277.426,156.963 277.101,152.800 275.205 C 148.550 273.268,146.621 272.065,144.581 270.076 C 142.289 267.842,141.596 266.701,138.576 260.200 C 136.435 255.592,132.920 251.399,129.000 248.779 C 124.178 245.557,123.613 243.647,127.313 243.079 C 133.514 242.126,143.066 248.464,146.000 255.478 C 147.094 258.095,154.053 263.170,157.400 263.793 C 158.568 264.011,158.574 264.005,157.600 263.567 C 157.050 263.320,156.287 262.956,155.905 262.759 C 155.523 262.561,155.016 262.400,154.777 262.400 C 153.034 262.400,148.153 257.771,145.076 253.200 C 143.127 250.303,138.759 245.600,138.018 245.600 C 137.820 245.600,137.419 245.375,137.129 245.100 C 136.629 244.627,135.929 244.267,133.600 243.285 C 133.050 243.054,131.970 242.775,131.200 242.666 C 130.430 242.557,129.530 242.365,129.200 242.238 C 128.870 242.112,128.330 242.184,128.000 242.398 M106.400 245.436 C 106.400 245.850,110.117 252.891,111.920 255.892 C 120.213 269.696,133.550 282.943,147.246 290.980 C 150.386 292.824,158.480 296.853,158.666 296.667 C 158.766 296.567,156.992 295.562,154.724 294.433 C 150.274 292.219,147.617 290.743,145.938 289.553 C 145.354 289.139,144.762 288.800,144.622 288.800 C 144.049 288.800,135.969 282.698,132.211 279.427 C 122.741 271.185,113.991 259.829,108.381 248.500 C 106.907 245.523,106.400 244.739,106.400 245.436 M133.642 245.749 C 133.011 246.510,133.503 247.560,134.621 247.841 C 135.790 248.135,136.400 247.774,136.400 246.790 C 136.400 245.499,134.458 244.766,133.642 245.749 M135.902 246.700 C 135.992 246.975,135.779 247.310,135.428 247.445 C 134.690 247.728,133.497 246.891,133.842 246.332 C 134.163 245.812,135.700 246.087,135.902 246.700 M138.100 249.065 C 136.696 249.632,138.318 252.626,139.870 252.332 C 141.003 252.117,141.045 250.217,139.934 249.439 C 138.970 248.763,138.888 248.747,138.100 249.065 M139.767 249.843 C 140.563 250.148,140.616 252.000,139.829 252.000 C 139.092 252.000,138.000 250.908,138.000 250.171 C 138.000 249.569,138.710 249.437,139.767 249.843 M142.100 254.265 C 140.514 254.905,142.030 258.138,143.820 257.934 C 145.320 257.764,145.559 256.564,144.389 255.077 C 143.559 254.021,143.104 253.860,142.100 254.265 M144.325 256.300 C 144.483 257.934,142.676 258.283,142.252 256.700 C 141.808 255.042,141.948 254.741,143.100 254.873 C 144.017 254.979,144.221 255.217,144.325 256.300 M146.480 260.480 C 145.573 261.387,146.859 263.720,148.493 264.132 C 149.377 264.354,149.380 264.346,148.600 263.794 C 147.027 262.680,146.756 262.314,146.877 261.467 C 147.037 260.347,148.248 260.138,149.262 261.056 C 149.800 261.543,150.012 262.140,149.904 262.870 C 149.817 263.468,149.892 263.867,150.072 263.755 C 150.686 263.376,150.402 261.602,149.600 260.800 C 148.705 259.905,147.208 259.752,146.480 260.480 M160.715 264.480 C 162.065 264.726,163.730 264.728,165.315 264.484 C 167.690 264.119,167.596 264.102,163.200 264.098 C 159.059 264.095,158.811 264.133,160.715 264.480 M153.680 264.880 C 152.464 266.096,153.809 268.000,155.883 268.000 C 156.553 268.000,157.331 267.724,157.611 267.386 C 158.976 265.742,155.216 263.344,153.680 264.880 M156.711 265.423 C 157.826 266.204,157.852 267.066,156.771 267.409 C 154.884 268.008,153.009 266.593,154.042 265.349 C 154.641 264.627,155.613 264.654,156.711 265.423 M169.826 265.571 C 168.862 266.636,169.338 267.879,170.834 268.208 C 173.004 268.684,174.880 266.640,173.520 265.280 C 172.773 264.533,170.612 264.703,169.826 265.571 M173.158 265.749 C 174.248 267.063,172.125 268.523,170.437 267.620 C 169.416 267.074,169.371 266.462,170.300 265.757 C 171.215 265.062,172.585 265.059,173.158 265.749 M162.300 266.157 C 161.427 266.819,161.384 268.631,162.233 268.957 C 163.386 269.400,165.134 269.209,165.771 268.571 C 167.443 266.900,164.249 264.678,162.300 266.157 M165.526 267.529 C 165.618 268.146,165.385 268.439,164.655 268.622 C 162.409 269.186,160.927 267.407,162.900 266.516 C 164.085 265.980,165.368 266.476,165.526 267.529 M160.736 297.664 C 161.691 298.103,162.571 298.362,162.693 298.240 C 162.815 298.118,162.574 297.911,162.157 297.780 C 161.741 297.649,161.087 297.375,160.705 297.171 C 160.323 296.967,159.783 296.815,159.505 296.834 C 159.227 296.852,159.781 297.226,160.736 297.664 M239.380 297.153 C 239.171 297.348,237.830 297.910,236.400 298.403 C 233.666 299.346,232.329 299.968,233.000 299.986 C 233.527 300.000,239.175 297.885,240.200 297.289 C 240.796 296.943,240.842 296.821,240.380 296.812 C 240.039 296.805,239.589 296.959,239.380 297.153 M164.600 299.200 C 165.480 299.607,166.470 299.941,166.800 299.941 C 167.130 299.941,166.680 299.607,165.800 299.200 C 164.920 298.793,163.930 298.459,163.600 298.459 C 163.270 298.459,163.720 298.793,164.600 299.200 M168.500 300.276 C 168.885 300.376,169.515 300.376,169.900 300.276 C 170.285 300.175,169.970 300.093,169.200 300.093 C 168.430 300.093,168.115 300.175,168.500 300.276 M229.900 300.282 C 230.395 300.378,231.205 300.378,231.700 300.282 C 232.195 300.187,231.790 300.109,230.800 300.109 C 229.810 300.109,229.405 300.187,229.900 300.282 " fill="transparent" stroke-width="0.25em" stroke-opacity="0"></path></g></svg>