<svg xmlns="http://www.w3.org/2000/svg" xmlns:xlink="http://www.w3.org/1999/xlink" version="1.1" x="0px" y="0px" viewBox="0 0 95 100" enable-background="new 0 0 100 100" xml:space="preserve"><path fill="#000000" d="M46.49,19.999c1.928,0,3.492,1.596,3.492,3.563v22.314c0-2.142,1.788-3.878,3.995-3.878  c2.205,0,3.992,1.736,3.992,3.878v2.996c0-2.142,1.797-3.878,4.012-3.878s4.01,1.736,4.01,3.878v2.064  c0.004-1.628,1.34-2.946,2.988-2.946c1.652,0,2.992,1.323,2.992,2.956c0,0,0.016,5.77,0.016,12.059  c0,6.287-6.105,12.816-6.105,16.996c-5.188,0-16.438,0-19.959,0c0-2.477-17.474-26.848-17.474-26.848  c-0.924-1.621-0.338-3.714,1.309-4.676C30.311,48.154,30.916,48,31.509,48c1.166,0,2.289,0.596,2.9,1.67l8.588,11.489V23.562  C42.998,21.594,44.56,19.999,46.49,19.999 M46.49,16.999c-3.58,0-6.492,2.944-6.492,6.563v28.573l-3.092-4.137  C35.761,46.143,33.714,45,31.509,45c-1.142,0-2.272,0.307-3.267,0.889c-3.058,1.786-4.135,5.711-2.401,8.752l0.077,0.135  l0.091,0.127c7.611,10.615,15.873,22.832,16.912,25.445v2.654h3h19.959h3v-3c0-1.139,1.193-3.418,2.246-5.426  c1.81-3.455,3.859-7.369,3.859-11.57c0-6.293-0.016-12.067-0.016-12.067c0-3.276-2.688-5.948-5.992-5.948  c-0.389,0-0.771,0.037-1.141,0.108c-1.254-1.868-3.412-3.104-5.857-3.104c-0.709,0-1.394,0.104-2.039,0.296  c-1.23-1.973-3.443-3.292-5.965-3.292c-0.338,0-0.67,0.023-0.994,0.069V23.562C52.982,19.943,50.069,16.999,46.49,16.999  L46.49,16.999z"/></svg>