<svg xmlns="http://www.w3.org/2000/svg" xmlns:xlink="http://www.w3.org/1999/xlink" version="1.1" x="0px" y="0px" viewBox="20 15 110 70" enable-background="new 0 0 100 100" xml:space="preserve"><g><path fill="#000000" d="M42.504,29.998c1.93,0,3.492,1.596,3.492,3.564v2.312c0-2.141,1.789-3.877,3.994-3.877   c2.207,0,3.994,1.736,3.994,3.877v2.998c0-2.143,1.795-3.879,4.01-3.879s4.01,1.736,4.01,3.879v2.062   c0.006-1.627,1.342-2.945,2.99-2.945c1.652,0,2.99,1.322,2.99,2.955c0,0,0.018,5.771,0.018,12.059   c0,6.289-6.105,12.816-6.105,16.998c-5.188,0-16.437,0-19.96,0c0-3.746-9.938-11.148-9.938-15.568   c0-0.053-0.002-13.557-0.002-13.557c0-2.146,1.789-3.889,3.998-3.891v7.824c0,0.66,0.676,1.197,1.51,1.197s1.51-0.537,1.51-1.197   V33.562C39.014,31.594,40.577,29.998,42.504,29.998 M42.504,26.998c-3.578,0-6.49,2.944-6.49,6.564v0.424h-0.021   c-3.857,0.003-6.996,3.095-6.996,6.891l0.002,13.557c0,3.42,2.919,6.789,6.009,10.356c1.39,1.604,3.707,4.279,3.928,5.274v2.938h3   h19.96h3v-3c0-1.14,1.193-3.418,2.246-5.429c1.811-3.453,3.859-7.367,3.859-11.569c0-6.292-0.018-12.067-0.018-12.067   c0-3.274-2.686-5.946-5.99-5.946c-0.389,0-0.771,0.037-1.141,0.108c-1.256-1.868-3.412-3.104-5.859-3.104   c-0.707,0-1.391,0.104-2.037,0.296c-1.23-1.973-3.445-3.292-5.966-3.292c-0.859,0-1.683,0.153-2.443,0.434   C46.356,27.948,44.538,26.998,42.504,26.998L42.504,26.998z"/><path fill-rule="evenodd" clip-rule="evenodd" fill="#000000" d="M46.499,39c0.828,0,1.5,0.672,1.5,1.5v4   c0,0.828-0.672,1.5-1.5,1.5s-1.5-0.672-1.5-1.5v-4C44.999,39.672,45.67,39,46.499,39z"/><path fill-rule="evenodd" clip-rule="evenodd" fill="#000000" d="M53.498,40c0.828,0,1.5,0.672,1.5,1.5v4   c0,0.828-0.672,1.5-1.5,1.5s-1.5-0.672-1.5-1.5v-4C51.998,40.672,52.67,40,53.498,40z"/><path fill-rule="evenodd" clip-rule="evenodd" fill="#000000" d="M59.498,42c0.828,0,1.5,0.672,1.5,1.5v3   c0,0.828-0.672,1.5-1.5,1.5s-1.5-0.672-1.5-1.5v-3C57.998,42.672,58.67,42,59.498,42z"/></g></svg>