<svg xmlns:dc="http://purl.org/dc/elements/1.1/" xmlns:cc="http://creativecommons.org/ns#" xmlns:rdf="http://www.w3.org/1999/02/22-rdf-syntax-ns#" xmlns:svg="http://www.w3.org/2000/svg" xmlns="http://www.w3.org/2000/svg" xmlns:sodipodi="http://sodipodi.sourceforge.net/DTD/sodipodi-0.dtd" xmlns:inkscape="http://www.inkscape.org/namespaces/inkscape" version="1.1" x="0px" y="0px" viewBox="0 0 100 125"><g transform="translate(0,-952.36218)"><path style="font-size:medium;font-style:normal;font-variant:normal;font-weight:normal;font-stretch:normal;text-indent:0;text-align:start;text-decoration:none;line-height:normal;letter-spacing:normal;word-spacing:normal;text-transform:none;direction:ltr;block-progression:tb;writing-mode:lr-tb;text-anchor:start;baseline-shift:baseline;opacity:1;color:#000000;fill:#000000;fill-opacity:1;stroke:none;stroke-width:4;marker:none;visibility:visible;display:inline;overflow:visible;enable-background:accumulate;font-family:Sans;-inkscape-font-specification:Sans" d="m 36,6 c -4.397406,0 -8,3.60259 -8,8 l 0,30.40625 C 23.482976,45.36619 20,49.2052 20,54 l 0,8 c 0,4.9917 2.764508,9.9589 6,14.4375 3.023051,4.1845 6.486835,7.80905 9,10.34375 L 35,92 c 1.05e-4,1.047169 0.952831,1.999895 2,2 l 34,0 c 1.047169,-1.05e-4 1.999895,-0.952831 2,-2 L 73,81.6875 C 77.318715,77.0445 80,70.8467 80,64 l 0,-13 c 0,-4.39741 -3.602594,-8 -8,-8 -1.540941,0 -2.900074,0.54856 -4.125,1.3125 C 67.509716,40.24643 64.156394,37 60,37 58.459059,37 57.099926,37.54856 55.875,38.3125 55.509716,34.24643 52.156394,31 48,31 c -1.485348,0 -2.804226,0.50489 -4,1.21875 L 44,14 C 44,9.60259 40.397406,6 36,6 z m 0,4 c 2.250594,0 4,1.74941 4,4 l 0,25 c 0,1.104569 0.895431,2 2,2 1.104569,0 2,-0.895431 2,-2 0,-2.25059 1.749406,-4 4,-4 2.250594,0 4,1.74941 4,4 l 0,6 c 0,1.104569 0.895431,2 2,2 1.104569,0 2,-0.895431 2,-2 0,-2.25059 1.749406,-4 4,-4 2.250594,0 4,1.74941 4,4 l 0,6 c 0,1.104569 0.895431,2 2,2 1.104569,0 2,-0.895431 2,-2 0,-2.2506 1.749406,-4 4,-4 2.250594,0 4,1.7494 4,4 l 0,13 C 76,70.1141 73.567493,75.5888 69.59375,79.5625 69.215129,79.936893 68.995947,80.467545 69,81 l 0,9 -30,0 0,-4 c 0.0041,-0.532455 -0.215129,-1.063107 -0.59375,-1.4375 C 35.934765,82.091 32.264508,78.26635 29.25,74.09375 26.235492,69.92105 24,65.4034 24,62 l 0,-8 c 0,-2.655232 1.648974,-4.848321 4,-5.65625 L 28,60 c -0.01494,1.056625 0.943269,2.028484 2,2.028484 1.056731,0 2.014943,-0.971859 2,-2.028484 l 0,-46 c 0,-2.25059 1.749406,-4 4,-4 z" transform="translate(0,952.36218)"/></g><text x="0" y="115" fill="#000000" font-size="5px" font-weight="bold" font-family="'Helvetica Neue', Helvetica, Arial-Unicode, Arial, Sans-serif">Created by creative outlet</text><text x="0" y="120" fill="#000000" font-size="5px" font-weight="bold" font-family="'Helvetica Neue', Helvetica, Arial-Unicode, Arial, Sans-serif">from the Noun Project</text></svg>