<svg xmlns="http://www.w3.org/2000/svg" xmlns:xlink="http://www.w3.org/1999/xlink" version="1.1" x="0px" y="0px" viewBox="10 20 130 75" enable-background="new 0 0 100 100" xml:space="preserve"><path fill="#000000" d="M43.938,28.001c0.899,0,1.812,0.353,2.511,1.053c1.367,1.369,1.406,3.549,0.088,4.869l-7.521,7.489  c-0.691,0.781-0.285,1.599,2.631,1.599h33.291c1.969,0,3.564,1.562,3.564,3.491s-1.596,3.492-3.564,3.492H55.623  c2.143,0,3.879,1.788,3.879,3.994s-1.736,3.994-3.879,3.994h-2.996c2.143,0,3.879,1.795,3.879,4.01s-1.736,4.01-3.879,4.01h-2.064  c1.629,0.006,2.947,1.341,2.947,2.99c0,1.651-1.324,2.99-2.957,2.99c0,0-5.77,0.017-12.059,0.017  c-6.287,0-12.816-6.105-16.996-6.105c0-5.188,0-16.437,0-19.96c2.533,0,11.166-8.025,11.166-8.025l8.926-8.942  C42.232,28.321,43.08,28.001,43.938,28.001 M43.938,25.001v3V25.001c-1.696,0-3.285,0.655-4.473,1.846l-8.885,8.902  c-3.697,3.431-7.952,6.719-9.285,7.185h-2.798v3v19.96v3h3c1.139,0,3.417,1.193,5.427,2.246c3.454,1.809,7.368,3.859,11.569,3.859  c6.294,0,12.067-0.017,12.067-0.017c3.276,0,5.948-2.688,5.948-5.99c0-0.391-0.037-0.771-0.109-1.142  c1.869-1.255,3.105-3.412,3.105-5.858c0-0.708-0.104-1.393-0.296-2.037c1.973-1.231,3.292-3.445,3.292-5.967  c0-0.337-0.023-0.67-0.069-0.994h12.505c3.62,0,6.564-2.912,6.564-6.492c0-3.579-2.944-6.491-6.564-6.491H44.675l3.979-3.962  c2.489-2.493,2.449-6.579-0.082-9.115C47.326,25.688,45.682,25.002,43.938,25.001L43.938,25.001z"/></svg>