<svg
  xmlns="http://www.w3.org/2000/svg"
  xmlns:xlink="http://www.w3.org/1999/xlink"
  version="1.1"
  x="0px"
  y="0px"
  viewBox="0 0 139 173.75"
  enable-background="new 0 0 139 139"
  xml:space="preserve"
>
  <path
    d="M69.5,11.665c-31.941,0-57.834,25.893-57.834,57.834c0,31.94,25.893,57.834,57.834,57.834  c31.941,0,57.834-25.894,57.834-57.834C127.334,37.558,101.441,11.665,69.5,11.665z M87.123,73.416  c-0.282,0.282-0.591,0.52-0.913,0.727L64.505,95.848c-1.054,1.055-2.436,1.582-3.818,1.582s-2.763-0.527-3.818-1.582  c-2.109-2.109-2.109-5.529,0-7.637l18.703-18.706L56.963,50.896c-2.109-2.11-2.109-5.529,0-7.637  c2.109-2.109,5.528-2.108,7.637-0.001l21.609,21.608c0.322,0.207,0.631,0.445,0.912,0.727c1.078,1.078,1.598,2.498,1.574,3.912  C88.721,70.918,88.202,72.337,87.123,73.416z"
  />
</svg>
