<svg
  xmlns="http://www.w3.org/2000/svg"
  xmlns:xlink="http://www.w3.org/1999/xlink"
  version="1.1"
  x="0px"
  y="0px"
  viewBox="0 0 139 173.75"
  enable-background="new 0 0 139 139"
  xml:space="preserve"
>
  <path
    d="M69.698,11.665c-31.94,0-57.833,25.894-57.833,57.834c0,31.939,25.893,57.835,57.833,57.835s57.835-25.896,57.835-57.835  C127.533,37.559,101.639,11.665,69.698,11.665z M95.795,62.423L74.186,84.032c-0.207,0.323-0.442,0.631-0.725,0.912  c-1.078,1.079-2.5,1.598-3.912,1.573c-1.414,0.024-2.832-0.494-3.91-1.572c-0.283-0.282-0.521-0.59-0.729-0.913L43.207,62.326  c-1.055-1.053-1.584-2.435-1.582-3.816c-0.002-1.382,0.527-2.763,1.58-3.818c2.109-2.109,5.527-2.108,7.637,0l18.707,18.705  l18.608-18.611c2.109-2.109,5.528-2.107,7.638,0C97.904,56.895,97.902,60.313,95.795,62.423z"
  />
</svg>
