<svg
  xmlns="http://www.w3.org/2000/svg"
  xmlns:xlink="http://www.w3.org/1999/xlink"
  version="1.1"
  x="0px"
  y="0px"
  viewBox="0 0 139 139"
  enable-background="new 0 0 139 139"
  xml:space="preserve"
>
  <path
    d="M69.499,11.665c-31.94,0-57.833,25.894-57.833,57.834c0,31.939,25.893,57.835,57.833,57.835s57.835-25.896,57.835-57.835  C127.334,37.559,101.439,11.665,69.499,11.665z M84.623,95.795c-1.055,1.054-2.437,1.581-3.818,1.581s-2.764-0.527-3.818-1.582  L55.282,74.09c-0.323-0.207-0.632-0.445-0.913-0.727c-1.078-1.079-1.598-2.498-1.572-3.911c-0.025-1.414,0.494-2.834,1.572-3.912  c0.283-0.282,0.59-0.52,0.913-0.727l21.608-21.608c2.109-2.107,5.529-2.108,7.637,0.001c2.109,2.108,2.109,5.527,0,7.637  L65.918,69.452l18.705,18.706C86.732,90.267,86.732,93.686,84.623,95.795z"
  />
</svg>
