<svg
  xmlns="http://www.w3.org/2000/svg"
  xmlns:xlink="http://www.w3.org/1999/xlink"
  version="1.1"
  x="0px"
  y="0px"
  viewBox="0 0 139 139"
  enable-background="new 0 0 139 139"
  xml:space="preserve"
>
  <path
    d="M70.805,12.665c-31.941,0-57.834,25.893-57.834,57.834c0,31.94,25.893,57.834,57.834,57.834  c31.939,0,57.834-25.894,57.834-57.834C128.639,38.558,102.744,12.665,70.805,12.665z M103.65,73.286L76.07,89.21  c-0.497,0.287-1.053,0.433-1.608,0.433c-0.555,0-1.11-0.146-1.608-0.433c-0.996-0.574-1.609-1.637-1.609-2.786v-13.07L43.778,89.21  c-0.498,0.287-1.054,0.433-1.609,0.433s-1.11-0.146-1.608-0.433c-0.996-0.574-1.609-1.637-1.609-2.786V54.575  c0-1.148,0.613-2.213,1.609-2.787c0.996-0.574,2.221-0.574,3.218,0l27.466,15.859V54.575c0-1.148,0.612-2.213,1.608-2.787  c0.996-0.574,2.223-0.574,3.219,0l27.58,15.925c0.996,0.573,1.611,1.638,1.607,2.786C105.26,71.648,104.646,72.712,103.65,73.286z"
  />
</svg>
