<svg
  xmlns="http://www.w3.org/2000/svg"
  xmlns:xlink="http://www.w3.org/1999/xlink"
  version="1.1"
  x="0px"
  y="0px"
  viewBox="0 0 139 139"
  enable-background="new 0 0 139 139"
  xml:space="preserve"
>
  <path
    d="M69.501,12.666c-31.94,0-57.835,25.894-57.835,57.834c0,31.939,25.895,57.834,57.835,57.834s57.833-25.895,57.833-57.834  C127.334,38.559,101.441,12.666,69.501,12.666z M101.352,86.424c0,1.15-0.613,2.213-1.609,2.787  c-0.498,0.287-1.053,0.432-1.608,0.432s-1.111-0.145-1.609-0.432L69.059,73.354v13.07c0,1.15-0.613,2.213-1.609,2.787  c-0.498,0.287-1.054,0.432-1.609,0.432c-0.555,0-1.111-0.145-1.608-0.432L36.65,73.287c-0.996-0.574-1.609-1.639-1.609-2.787  c0-1.149,0.613-2.213,1.609-2.787l27.581-15.925c0.996-0.574,2.222-0.574,3.218,0s1.609,1.639,1.609,2.787v13.072l27.466-15.859  c0.997-0.574,2.222-0.574,3.218,0s1.609,1.639,1.609,2.787V86.424z"
  />
</svg>
