<svg
  xmlns="http://www.w3.org/2000/svg"
  xmlns:xlink="http://www.w3.org/1999/xlink"
  version="1.1"
  x="0px"
  y="0px"
  viewBox="0 0 139 173.75"
  enable-background="new 0 0 139 139"
  xml:space="preserve"
>
  <path
    d="M69.698,11.665c-31.94,0-57.833,25.894-57.833,57.834c0,31.939,25.893,57.835,57.833,57.835s57.835-25.896,57.835-57.835  C127.533,37.559,101.639,11.665,69.698,11.665z M95.795,84.842c-2.109,2.108-5.528,2.109-7.638,0L69.55,66.231L50.842,84.937  c-2.108,2.108-5.528,2.109-7.638,0c-1.053-1.056-1.58-2.437-1.58-3.819c0-1.382,0.527-2.763,1.582-3.816L64.91,55.596  c0.208-0.323,0.446-0.631,0.728-0.913c1.078-1.078,2.497-1.597,3.912-1.572c1.412-0.024,2.833,0.494,3.91,1.573  c0.283,0.281,0.52,0.589,0.727,0.912l21.608,21.608C97.903,79.313,97.904,82.732,95.795,84.842z"
  />
</svg>
