s<svg
  xmlns="http://www.w3.org/2000/svg"
  xmlns:xlink="http://www.w3.org/1999/xlink"
  version="1.1"
  x="0px"
  y="0px"
  viewBox="0 0 139 173.75"
  enable-background="new 0 0 139 139"
  xml:space="preserve"
>
  <path
    d="M69.5,11.666c-31.941,0-57.834,25.893-57.834,57.834c0,31.941,25.893,57.834,57.834,57.834  c31.941,0,57.834-25.893,57.834-57.834C127.334,37.559,101.441,11.666,69.5,11.666z M97.805,61.343L68.234,88.114  c-0.725,0.657-1.57,1.099-2.455,1.331c-0.763,0.34-1.582,0.516-2.404,0.516c-1.463,0-2.928-0.539-4.074-1.626L41.094,71.052  c-2.37-2.25-2.467-5.995-0.217-8.365c2.248-2.37,5.994-2.468,8.365-0.218l14.492,13.756l26.127-23.656  c2.422-2.193,6.164-2.008,8.357,0.415C100.412,55.407,100.227,59.149,97.805,61.343z"
  />
</svg>
