<svg xmlns:dc="http://purl.org/dc/elements/1.1/" xmlns:cc="http://creativecommons.org/ns#" xmlns:rdf="http://www.w3.org/1999/02/22-rdf-syntax-ns#" xmlns:svg="http://www.w3.org/2000/svg" xmlns="http://www.w3.org/2000/svg" xmlns:sodipodi="http://sodipodi.sourceforge.net/DTD/sodipodi-0.dtd" xmlns:inkscape="http://www.inkscape.org/namespaces/inkscape" version="1.1" x="0px" y="0px" viewBox="0 0 100 100"><g transform="translate(0,-952.36218)"><path style="font-size:medium;font-style:normal;font-variant:normal;font-weight:normal;font-stretch:normal;text-indent:0;text-align:start;text-decoration:none;line-height:normal;letter-spacing:normal;word-spacing:normal;text-transform:none;direction:ltr;block-progression:tb;writing-mode:lr-tb;text-anchor:start;baseline-shift:baseline;opacity:1;color:#000000;fill:#000000;fill-opacity:1;stroke:none;stroke-width:4;marker:none;visibility:visible;display:inline;overflow:visible;enable-background:accumulate;font-family:Sans;-inkscape-font-specification:Sans" d="M 40 6 C 21.246007 6 6 21.24601 6 40 C 6 58.75402 21.246007 74 40 74 C 48.661987 74 56.55377 70.723242 62.5625 65.375 L 69.1875 72 L 66.59375 74.59375 A 2.0002 2.0002 0 0 0 66.59375 77.4375 L 82.5625 93.4375 A 2.0002 2.0002 0 0 0 85.40625 93.4375 L 93.4375 85.40625 A 2.0002 2.0002 0 0 0 93.4375 82.5625 L 77.4375 66.59375 A 2.0002 2.0002 0 0 0 74.71875 66.4375 A 2.0002 2.0002 0 0 0 74.59375 66.59375 L 72 69.1875 L 65.40625 62.5625 C 70.746296 56.555661 74 48.654556 74 40 C 74 21.24601 58.753993 6 40 6 z M 40 10 C 56.592232 10 70 23.40777 70 40 C 70 56.59222 56.592232 70 40 70 C 23.407768 70 10 56.59222 10 40 C 10 23.40777 23.407768 10 40 10 z M 39.78125 17.96875 A 2.0002 2.0002 0 0 0 38 20 L 38 38 L 20 38 A 2.0002 2.0002 0 0 0 19.8125 38 A 2.0021961 2.0021961 0 1 0 20 42 L 38 42 L 38 60 A 2.0002 2.0002 0 1 0 42 60 L 42 42 L 60 42 A 2.0002 2.0002 0 1 0 60 38 L 42 38 L 42 20 A 2.0002 2.0002 0 0 0 39.78125 17.96875 z M 76 70.8125 L 89.1875 84 L 84 89.1875 L 70.8125 76 L 76 70.8125 z " transform="translate(0,952.36218)"/></g></svg>